<svg version="1.1" id="Layer_1" xmlns="http://www.w3.org/2000/svg" xmlns:xlink="http://www.w3.org/1999/xlink" x="0px" y="0px"
	 width="100%" viewBox="0 0 231 468" enable-background="new 0 0 231 468" xml:space="preserve">
<path fill="#47704C" opacity="1.000000" stroke="none" 
	d="
M1.000000,172.000000 
	C1.000000,114.686989 1.000000,57.873985 1.000000,1.030488 
	C77.952126,1.030488 154.904266,1.030488 232.000000,1.030488 
	C232.000000,78.924187 232.000000,156.848450 232.000000,234.772720 
	C232.000000,312.744843 232.000000,390.716949 232.000000,468.844543 
	C155.000214,468.844543 78.000153,468.844543 1.000000,468.844543 
	C1.000000,370.095825 1.000000,271.297913 1.000000,172.000000 
M93.972504,61.303802 
	C93.655663,60.154884 93.338821,59.005962 92.692474,57.269062 
	C91.323624,55.199154 90.124489,52.989635 88.556519,51.083515 
	C81.778954,42.844269 69.711487,44.185715 66.240662,54.208118 
	C64.096786,60.398804 63.580902,67.451782 63.817173,74.064667 
	C63.978271,78.573502 65.855240,83.577187 68.452766,87.329788 
	C74.286407,95.757561 84.111252,95.382576 89.068573,87.093536 
	C89.068573,87.093536 88.991310,87.022385 89.513695,86.741486 
	C89.824982,86.493187 90.136269,86.244888 90.871544,85.576309 
	C91.559273,84.360214 92.247002,83.144112 92.967705,81.421028 
	C92.973503,81.251778 92.979301,81.082527 93.004288,80.683609 
	C93.004288,80.683609 92.991585,80.453491 93.424278,79.845360 
	C93.607620,78.878685 93.790962,77.912010 93.999397,76.692680 
	C93.999397,76.692680 93.993797,76.438850 94.474541,75.686462 
	C94.318672,71.107368 94.162796,66.528282 93.971786,62.000492 
	C93.971786,62.000492 94.022858,62.035969 93.972504,61.303802 
M131.262772,104.270180 
	C127.162392,105.526955 123.062012,106.783730 118.173630,108.039551 
	C116.413635,108.337051 114.653633,108.634560 112.160820,109.140778 
	C100.039299,113.929337 87.591141,118.049355 75.916756,123.753120 
	C68.726280,127.266174 62.716938,133.196762 55.445301,138.144806 
	C49.597336,143.382492 43.202991,148.136963 38.037231,153.977997 
	C31.308298,161.586533 26.932240,170.717102 24.534113,181.393188 
	C24.388445,182.551514 24.242775,183.709854 24.015657,185.272079 
	C24.015657,185.272079 23.963282,185.680786 23.442747,186.396332 
	C23.324125,192.201752 23.065197,198.008850 23.134607,203.812027 
	C23.183529,207.902237 23.678308,211.987106 23.902679,216.118652 
	C23.902679,216.118652 23.875109,216.197983 23.930727,217.025650 
	C24.832016,222.595230 25.733305,228.164795 26.767879,234.590210 
	C27.167479,236.710434 27.385941,238.884186 27.994308,240.942719 
	C35.156139,265.176056 47.214138,287.195831 58.795738,309.458435 
	C64.236938,319.917694 70.174034,330.415985 73.512672,341.604889 
	C79.014694,360.044006 82.350723,379.118317 87.058556,397.809326 
	C90.292114,410.647247 95.154343,422.893250 104.836411,432.473663 
	C126.984802,454.389587 160.207703,455.985046 184.205109,436.093353 
	C191.926971,429.692627 198.733231,422.348450 201.468277,411.451752 
	C202.940048,406.320282 204.411819,401.188843 205.916046,395.115265 
	C205.939743,392.650513 205.932739,390.185059 205.992676,387.721161 
	C206.202118,379.114288 204.278763,371.126373 198.980560,363.349457 
	C193.382736,351.792542 185.261612,342.170166 175.966904,333.466949 
	C175.160843,332.712189 173.974365,332.363678 172.585892,331.318787 
	C168.348709,326.665527 164.041183,322.074036 159.888901,317.346191 
	C151.046341,307.277954 143.884460,296.171875 139.867950,283.285034 
	C135.109070,268.016418 136.944122,253.132782 143.395691,238.027023 
	C145.300903,234.381287 147.206100,230.735550 149.642151,226.684647 
	C150.580063,225.745804 151.555374,224.841171 152.449844,223.862625 
	C158.351532,217.406067 164.067902,210.770248 170.164551,204.504074 
	C179.658386,194.746246 190.145218,185.841507 196.132233,172.315460 
	C196.639801,170.905853 197.193314,169.510880 197.647827,168.084366 
	C202.268906,153.581253 200.110458,140.191635 190.933029,127.234863 
	C187.379807,118.635185 181.009216,113.294708 171.754608,110.310295 
	C169.994110,109.208992 168.365173,107.645309 166.446640,107.099449 
	C161.998642,105.833916 157.410690,105.060333 151.967468,104.043762 
	C145.306000,104.037224 138.644531,104.030685 131.262772,104.270180 
M153.984268,61.000648 
	C153.984268,61.000648 153.927109,61.008137 153.944199,61.830887 
	C156.520325,67.978004 157.967972,74.999405 161.910355,80.088028 
	C169.821228,90.298965 180.299820,92.372551 189.466614,86.692436 
	C198.625549,81.017174 204.285233,72.690407 206.401550,61.299500 
	C210.973068,45.225124 209.568619,30.204851 198.900604,16.637413 
	C191.655609,7.423318 175.743576,6.492904 168.011520,15.004969 
	C168.011520,15.004969 168.032410,15.031522 167.360947,15.197196 
	C164.568985,19.157707 161.777023,23.118219 158.450211,27.504326 
	C157.334381,30.646721 156.218536,33.789116 154.901825,37.698784 
	C154.298615,43.174374 153.695404,48.649967 153.042023,54.919113 
	C153.353638,56.964745 153.665253,59.010376 153.984268,61.000648 
M37.211346,91.727989 
	C38.108093,94.554428 38.794907,97.469704 39.945389,100.188782 
	C42.324455,105.811539 48.119595,109.297401 53.685280,108.750229 
	C58.742935,108.253006 62.073601,104.588943 63.232925,97.772240 
	C63.726452,94.870354 63.660046,91.873238 63.727894,88.223801 
	C62.267262,84.547348 61.099483,80.712883 59.233681,77.255051 
	C58.153301,75.252815 55.949081,73.856979 53.641228,71.762001 
	C45.473530,67.710739 39.383598,69.846855 37.128635,78.406837 
	C36.094986,82.330650 37.033539,86.774002 37.211346,91.727989 
M141.754150,48.392029 
	C138.888062,43.653065 137.047546,37.567017 132.949097,34.446732 
	C123.499023,27.252064 111.660393,32.125526 106.871704,44.009937 
	C103.182060,53.166767 103.452003,62.546127 105.347656,72.684128 
	C108.896004,82.625977 114.569839,87.261688 122.691696,86.854744 
	C130.862717,86.445351 138.045197,79.880554 140.413589,70.346527 
	C142.710220,63.399273 144.144821,56.391193 141.754150,48.392029 
M27.408382,127.488304 
	C34.278847,130.251144 37.970638,128.486359 40.932053,120.133835 
	C41.363338,113.848434 40.359299,107.885399 36.751396,102.582741 
	C33.968586,98.492737 29.821323,97.765488 25.304739,98.373260 
	C21.676075,98.861557 19.831074,101.268967 19.294163,104.712845 
	C17.933605,113.439835 19.443487,121.230011 27.408382,127.488304 
z"/>
<path fill="#3B3C3C" opacity="1.000000" stroke="none" 
	d="
M112.893639,108.932068 
	C114.653633,108.634560 116.413635,108.337051 118.911743,108.153839 
	C126.129723,107.181412 132.609589,106.094696 139.475037,105.071487 
	C143.199127,105.097046 146.537659,105.059105 150.233353,105.174858 
	C157.749802,107.194908 164.909073,109.061264 172.068344,110.927620 
	C181.009216,113.294708 187.379807,118.635185 190.912598,127.886864 
	C191.204712,129.794647 191.254898,131.200073 191.872070,132.282120 
	C196.102753,139.699448 197.821518,147.708069 196.915253,156.097672 
	C196.301407,161.780151 194.808350,167.367661 193.491455,173.237976 
	C186.813751,181.186066 180.554169,189.074387 173.837814,196.552429 
	C166.654343,204.550537 158.906479,212.041626 151.719803,220.037033 
	C150.162430,221.769669 149.945602,224.707230 149.111298,227.089813 
	C147.206100,230.735550 145.300903,234.381287 143.029282,238.100861 
	C141.754883,238.686478 140.310959,238.996078 140.028809,239.743973 
	C138.566391,243.620346 137.010864,247.530060 136.196106,251.570984 
	C131.591522,274.408600 138.136322,294.429626 152.672577,311.952728 
	C158.882797,319.439026 166.187790,326.017151 173.152283,333.183472 
	C173.525909,333.586884 173.755463,333.800964 174.007172,334.019226 
	C174.016449,334.037201 174.001129,333.997986 173.845261,333.821411 
	C173.474731,333.415131 173.247513,333.198578 172.999542,332.702942 
	C172.982422,332.215942 172.973526,332.021210 172.964615,331.826447 
	C173.974365,332.363678 175.160843,332.712189 175.966904,333.466949 
	C185.261612,342.170166 193.382736,351.792542 199.022064,363.994690 
	C199.305115,366.079590 199.309418,367.611267 199.826599,368.943970 
	C203.226685,377.705750 204.439468,386.757477 203.599945,396.433228 
	C202.318954,401.844574 201.157654,406.920715 199.977768,412.007385 
	C199.959183,412.017944 200.002930,412.003479 200.262421,412.006927 
	C200.694901,412.012421 200.867889,412.014435 201.040863,412.016479 
	C198.733231,422.348450 191.926971,429.692627 184.205109,436.093353 
	C160.207703,455.985046 126.984802,454.389587 104.836411,432.473663 
	C95.154343,422.893250 90.292114,410.647247 87.058556,397.809326 
	C82.350723,379.118317 79.014694,360.044006 73.512672,341.604889 
	C70.174034,330.415985 64.236938,319.917694 58.795738,309.458435 
	C47.214138,287.195831 35.156139,265.176056 27.994308,240.942719 
	C27.385941,238.884186 27.167479,236.710434 26.917725,234.271164 
	C27.580734,233.738220 28.560087,233.401733 28.540668,233.327881 
	C27.035765,227.604691 25.452431,221.902130 23.875111,216.197983 
	C23.875109,216.197983 23.902679,216.118652 23.962534,215.719437 
	C24.043974,214.817444 24.065561,214.314651 24.084000,213.723511 
	C24.074406,213.456665 24.061779,213.278549 24.027002,212.677567 
	C24.004881,210.842758 23.998730,209.431244 24.130260,207.638855 
	C24.178543,203.505112 24.089146,199.752258 23.990559,195.538605 
	C23.975342,191.945480 23.969311,188.813126 23.963282,185.680786 
	C23.963282,185.680786 24.015657,185.272079 24.172127,184.749542 
	C24.545868,183.097519 24.763140,181.968033 24.980410,180.838547 
	C26.932240,170.717102 31.308298,161.586533 38.037231,153.977997 
	C43.202991,148.136963 49.597336,143.382492 56.134304,137.985703 
	C57.738586,137.433990 58.773216,137.202286 59.551514,136.625000 
	C74.946426,125.206200 92.329239,117.825272 110.234802,111.462830 
	C111.287880,111.088646 112.014893,109.796852 112.893639,108.932068 
M53.939220,139.997009 
	C53.939220,139.997009 54.044952,140.043350 54.063568,140.000961 
	C54.063568,140.000961 53.960339,139.957291 53.939220,139.997009 
M99.117165,409.581909 
	C99.346046,410.097382 99.574928,410.612854 99.893021,411.849152 
	C101.252274,414.278503 102.611526,416.707825 104.205406,419.770142 
	C108.141380,423.845276 112.077362,427.920380 116.001511,432.001099 
	C116.001511,432.001099 115.996910,431.989899 116.226814,432.042114 
	C116.467964,432.055237 116.686867,431.989746 117.177185,431.859833 
	C117.177185,431.859833 117.458458,431.945404 118.243073,431.968689 
	C118.504669,431.963318 118.766266,431.957916 119.031395,431.967041 
	C119.031395,431.967041 119.048035,431.964142 119.027298,432.439056 
	C119.029861,432.752472 119.032005,433.065887 119.381195,434.021545 
	C121.523773,435.416779 123.666359,436.812012 126.372276,438.647705 
	C136.256332,442.806549 146.318878,444.826782 157.350235,440.800812 
	C157.903915,440.173157 158.457611,439.545471 158.998535,438.989258 
	C158.998535,438.989258 158.926834,439.000397 159.461395,438.802856 
	C159.970154,438.548492 160.478928,438.294128 161.315704,438.005035 
	C161.315704,438.005035 161.645554,438.007751 162.140518,437.690765 
	C162.453583,437.456604 162.766647,437.222443 163.650986,436.972748 
	C164.031448,436.991333 164.411911,437.009949 165.207184,436.671234 
	C165.482376,436.433197 165.757553,436.195160 165.987030,436.009827 
	C165.987030,436.009827 165.931641,435.967407 166.449524,435.982086 
	C167.298416,435.500916 168.147308,435.019775 169.373871,434.265289 
	C169.826797,434.169006 170.279724,434.072754 171.366104,433.876282 
	C172.174072,433.638824 172.982056,433.401398 174.428558,432.844452 
	C177.944397,429.510864 181.460220,426.177277 185.303101,423.122284 
	C190.709778,422.481445 190.724457,417.807831 192.095963,414.057129 
	C192.095963,414.057129 192.151138,414.007416 192.678329,413.618683 
	C194.904144,407.392395 197.450134,401.253662 199.189926,394.894409 
	C199.838196,392.524811 198.602112,389.639709 197.940048,386.355255 
	C197.601776,384.237640 197.263519,382.120026 197.194809,379.332275 
	C197.275620,378.025330 197.748886,376.592255 197.375824,375.431152 
	C194.075302,365.158478 188.769821,356.055908 180.935623,348.559174 
	C180.364517,348.012665 178.997620,348.297791 177.420959,347.834595 
	C161.903336,332.780090 145.674271,318.269165 135.903214,298.449219 
	C128.985550,284.417206 126.138031,269.593353 129.639771,253.613602 
	C132.952881,245.366089 136.270691,237.120438 139.548874,228.859070 
	C139.622589,228.673309 139.246201,228.308975 139.155777,227.332474 
	C140.723343,224.781860 142.290924,222.231247 144.399124,219.741776 
	C147.461334,219.497833 148.828873,218.065781 148.159485,214.491440 
	C148.776306,214.012817 149.393143,213.534210 150.557098,213.101974 
	C151.667297,211.359589 152.777481,209.617203 154.276520,207.339935 
	C156.819916,204.805191 159.363327,202.270447 162.457306,199.872253 
	C163.532227,199.561325 164.823700,199.531448 165.648544,198.895935 
	C173.721207,192.676193 180.420181,185.248428 185.710587,175.768967 
	C186.962158,174.046829 188.501923,172.464935 189.419220,170.580109 
	C196.115051,156.821716 193.130219,143.707565 186.343582,131.000397 
	C185.472488,129.369400 183.546967,128.301575 182.065094,126.933685 
	C182.065094,126.933685 182.025330,126.889420 181.746674,126.356186 
	C180.874298,125.560516 180.001938,124.764847 178.670914,123.587486 
	C178.124695,123.010559 177.578491,122.433632 176.767365,121.283051 
	C175.529617,120.152405 174.291870,119.021759 172.569839,117.421425 
	C161.023941,109.438446 148.260803,108.650124 134.092712,111.045113 
	C125.728210,113.029022 117.363708,115.012932 108.236145,117.112000 
	C85.581062,124.069702 65.058037,134.870377 48.633087,152.178024 
	C43.503471,157.583328 40.162922,164.686417 35.573662,171.550751 
	C33.937847,176.032776 31.289864,180.423325 30.874903,185.015671 
	C29.984770,194.866653 29.532370,204.870132 30.199150,214.723312 
	C31.293734,230.898239 35.464256,246.436157 43.084213,261.531097 
	C43.384232,262.029694 43.684246,262.528290 43.937157,263.023529 
	C43.937157,263.023529 43.924992,263.069153 44.034718,263.800079 
	C44.743256,265.659180 45.306862,267.589661 46.182274,269.366547 
	C57.714478,292.774353 69.290627,316.160522 80.946426,340.248657 
	C82.240608,345.479309 83.534790,350.709930 84.862671,356.802277 
	C87.447266,368.948914 89.830421,381.143707 92.716515,393.218262 
	C93.856133,397.986053 96.116150,402.486053 98.078979,407.621185 
	C98.366570,408.096954 98.654160,408.572754 99.117165,409.581909 
M198.499695,383.528992 
	C198.499695,383.528992 198.458694,383.501160 198.499695,383.528992 
z"/>
<path fill="#3B3B3C" opacity="1.000000" stroke="none" 
	d="
M206.112701,61.936050 
	C204.285233,72.690407 198.625549,81.017174 189.466614,86.692436 
	C180.299820,92.372551 169.821228,90.298965 161.910355,80.088028 
	C157.967972,74.999405 156.520325,67.978004 154.133453,61.471375 
	C154.806396,60.620571 155.685242,60.151340 155.714096,59.634651 
	C156.104813,52.636219 156.414444,45.632221 156.608200,38.625835 
	C156.623428,38.075359 155.628265,37.496944 155.102692,36.931511 
	C156.218536,33.789116 157.334381,30.646721 158.968430,27.245216 
	C162.335236,23.001249 165.183823,19.016388 168.032410,15.031525 
	C168.032410,15.031522 168.011520,15.004969 168.386322,14.960993 
	C172.371811,13.714257 175.902191,12.073685 179.608795,11.393624 
	C189.395081,9.598109 198.367813,15.981313 202.569672,27.174364 
	C206.361816,37.276001 206.561295,47.576210 204.736404,58.080029 
	C204.533081,59.250340 205.622696,60.645283 206.112701,61.936050 
M165.977585,72.966316 
	C165.977585,72.966316 166.007767,72.992546 166.111465,73.686569 
	C167.722214,75.462013 169.332947,77.237457 170.965546,79.049049 
	C170.965546,79.049049 171.007751,79.050972 171.470642,79.595535 
	C173.421692,80.372208 175.321243,81.627365 177.332596,81.843872 
	C186.723465,82.854774 199.554718,71.011452 199.398056,61.642651 
	C199.395798,61.507713 198.438126,61.388748 197.844849,60.609657 
	C198.255646,53.835175 199.376144,47.010880 198.905045,40.298290 
	C198.255524,31.043413 194.682266,22.875868 186.192673,17.516851 
	C184.728836,13.359392 181.362747,15.155081 178.870422,15.591724 
	C177.489868,15.833591 176.418335,17.839464 174.822037,19.610020 
	C171.953674,23.442434 168.432693,26.950384 166.336472,31.166679 
	C159.397964,45.122658 160.621353,59.174549 166.542847,73.015076 
	C166.360107,73.012077 166.177368,73.009087 165.977585,72.966316 
z"/>
<path fill="#3C3C3C" opacity="1.000000" stroke="none" 
	d="
M89.075302,87.198349 
	C84.111252,95.382576 74.286407,95.757561 68.452766,87.329788 
	C65.855240,83.577187 63.978271,78.573502 63.817173,74.064667 
	C63.580902,67.451782 64.096786,60.398804 66.240662,54.208118 
	C69.711487,44.185715 81.778954,42.844269 88.556519,51.083515 
	C90.124489,52.989635 91.323624,55.199154 92.823860,57.865425 
	C92.935303,58.663475 92.915359,58.865158 92.682640,59.300049 
	C92.232391,60.795113 91.928513,62.048611 91.768547,63.320217 
	C90.931061,69.977371 90.117958,76.637688 89.326859,83.300514 
	C89.173576,84.591545 89.155663,85.898659 89.075302,87.198349 
M73.980553,82.000412 
	C73.980553,82.000412 74.017746,81.965561 74.210266,82.579033 
	C75.146492,83.373734 76.082710,84.168442 77.006950,84.990166 
	C77.006950,84.990166 77.027122,84.959274 77.321518,85.469231 
	C79.730560,87.287331 81.300613,86.789330 81.963356,83.348511 
	C81.963356,83.348511 81.980179,82.909706 82.094086,82.194214 
	C85.773293,75.021873 86.440346,67.568932 83.528442,60.058426 
	C82.712288,57.953373 80.670494,56.323509 79.190910,54.475674 
	C77.394638,56.014805 75.598366,57.553936 73.525917,59.108395 
	C73.525917,59.108395 73.248665,59.121834 72.906517,58.925735 
	C68.751472,62.930016 68.823875,74.303917 72.996407,80.016090 
	C72.996407,80.016090 73.005440,79.965965 73.173943,80.516563 
	C73.459717,81.012871 73.745499,81.509178 73.980553,82.000412 
z"/>
<path fill="#3C3C3C" opacity="1.000000" stroke="none" 
	d="
M140.050064,70.989174 
	C138.045197,79.880554 130.862717,86.445351 122.691696,86.854744 
	C114.569839,87.261688 108.896004,82.625977 105.427666,72.110153 
	C105.676048,66.774139 105.848503,62.012249 106.011856,57.250046 
	C106.271103,49.692093 108.143959,42.798584 113.966339,37.463764 
	C121.213608,30.823395 131.157852,32.054932 135.954819,40.705948 
	C138.000900,44.395905 138.716309,48.823708 140.031387,53.382626 
	C139.591202,58.570095 139.069092,63.286076 138.793137,68.016426 
	C138.736938,68.979622 139.606995,69.996849 140.050064,70.989174 
M125.719833,78.905602 
	C130.599915,77.422226 132.158768,73.473801 133.002045,69.000610 
	C133.002045,69.000610 133.053070,69.028633 133.557083,68.515755 
	C137.436615,62.041023 136.383759,55.220184 134.762314,48.444107 
	C134.548584,47.550961 132.963211,46.986034 131.506119,45.793568 
	C124.733292,37.146309 119.484528,37.811085 115.008026,47.825012 
	C114.361870,49.270485 113.358032,50.556061 112.559570,51.350971 
	C112.582954,51.023201 112.669212,50.683655 112.610695,50.371223 
	C112.559883,50.099953 112.345207,49.859375 111.835831,48.949379 
	C109.549675,57.167740 108.167923,64.682808 113.079018,72.456993 
	C113.692909,72.835754 114.306793,73.214516 115.467628,74.084656 
	C117.918137,77.087799 121.041969,78.478897 124.946976,78.497238 
	C124.946976,78.497238 124.959251,78.957146 124.375069,78.974167 
	C123.501144,79.055779 122.627220,79.137383 121.753288,79.218987 
	C121.796486,79.451660 121.839684,79.684334 121.882881,79.917000 
	C122.928612,79.624207 123.974335,79.331413 125.719833,78.905602 
z"/>
<path fill="#3B3B3C" opacity="1.000000" stroke="none" 
	d="
M54.250629,72.188248 
	C55.949081,73.856979 58.153301,75.252815 59.233681,77.255051 
	C61.099483,80.712883 62.267262,84.547348 63.514748,88.618340 
	C62.470814,91.482750 61.367878,93.899406 60.872082,96.434784 
	C60.099770,100.384209 58.922798,103.968201 54.758450,105.405037 
	C50.618195,106.833549 47.036869,105.361214 44.609673,102.012276 
	C42.105141,98.556625 40.170448,94.687965 37.990860,90.543510 
	C38.008362,88.269035 37.971779,86.449120 38.042694,84.633392 
	C38.471214,73.661079 43.167603,70.264183 53.918385,73.164871 
	C53.970913,73.168579 54.150055,72.872208 54.177422,72.701546 
	C54.204792,72.530884 54.250629,72.188248 54.250629,72.188248 
M48.153404,98.501320 
	C49.608536,99.516640 51.302143,101.561478 52.459957,101.293282 
	C53.994080,100.937912 55.845577,98.969856 56.274319,97.353607 
	C57.927505,91.121483 57.281582,84.963509 52.866840,79.988098 
	C51.332653,78.259064 48.116924,76.365158 46.406307,76.900749 
	C44.579163,77.472832 43.032536,80.685333 42.478493,83.010872 
	C42.057522,84.777847 43.382397,86.960747 44.035374,89.709435 
	C45.411663,92.467400 46.787952,95.225365 48.153404,98.501320 
z"/>
<path fill="#3A3A3A" opacity="1.000000" stroke="none" 
	d="
M40.890480,121.043457 
	C37.970638,128.486359 34.278847,130.251144 27.173962,126.983582 
	C26.428982,125.304329 26.191372,123.869499 25.361586,122.999413 
	C21.326942,118.768806 20.623781,113.660484 21.028616,108.177032 
	C21.284733,104.707962 21.917280,101.358459 25.902374,100.389046 
	C30.012623,99.389175 33.580254,101.117867 34.936668,104.822762 
	C36.838737,110.018059 37.704426,115.592781 38.984947,121.040054 
	C38.956470,121.074898 38.984341,120.980255 39.302437,120.988159 
	C40.043846,121.011856 40.467163,121.027657 40.890480,121.043457 
M29.922560,109.841942 
	C29.323666,110.138748 28.178474,110.519035 28.209129,110.719620 
	C28.575373,113.116005 29.116325,115.485680 29.611551,117.862343 
	C30.395256,117.670456 31.178963,117.478569 31.962667,117.286682 
	C31.403828,114.947716 30.844988,112.608757 29.922560,109.841942 
z"/>
<path fill="#4B4B4B" opacity="1.000000" stroke="none" 
	d="
M172.775253,331.572632 
	C172.973526,332.021210 172.982422,332.215942 172.995682,332.705322 
	C173.000061,333.000000 172.995331,333.007935 172.995331,333.007935 
	C166.187790,326.017151 158.882797,319.439026 152.672577,311.952728 
	C138.136322,294.429626 131.591522,274.408600 136.196106,251.570984 
	C137.010864,247.530060 138.566391,243.620346 140.028809,239.743973 
	C140.310959,238.996078 141.754883,238.686478 142.796921,238.370422 
	C136.944122,253.132782 135.109070,268.016418 139.867950,283.285034 
	C143.884460,296.171875 151.046341,307.277954 159.888901,317.346191 
	C164.041183,322.074036 168.348709,326.665527 172.775253,331.572632 
z"/>
<path fill="#494949" opacity="1.000000" stroke="none" 
	d="
M206.257126,61.617775 
	C205.622696,60.645283 204.533081,59.250340 204.736404,58.080029 
	C206.561295,47.576210 206.361816,37.276001 202.569672,27.174364 
	C198.367813,15.981313 189.395081,9.598109 179.608795,11.393624 
	C175.902191,12.073685 172.371811,13.714257 168.389923,14.975521 
	C175.743576,6.492904 191.655609,7.423318 198.900604,16.637413 
	C209.568619,30.204851 210.973068,45.225124 206.257126,61.617775 
z"/>
<path fill="#434444" opacity="1.000000" stroke="none" 
	d="
M149.376740,226.887238 
	C149.945602,224.707230 150.162430,221.769669 151.719803,220.037033 
	C158.906479,212.041626 166.654343,204.550537 173.837814,196.552429 
	C180.554169,189.074387 186.813751,181.186066 193.860367,173.243195 
	C194.929398,173.017609 195.412415,173.027130 195.895447,173.036667 
	C190.145218,185.841507 179.658386,194.746246 170.164551,204.504074 
	C164.067902,210.770248 158.351532,217.406067 152.449844,223.862625 
	C151.555374,224.841171 150.580063,225.745804 149.376740,226.887238 
z"/>
<path fill="#505050" opacity="1.000000" stroke="none" 
	d="
M140.036407,52.916214 
	C138.716309,48.823708 138.000900,44.395905 135.954819,40.705948 
	C131.157852,32.054932 121.213608,30.823395 113.966339,37.463764 
	C108.143959,42.798584 106.271103,49.692093 106.011856,57.250046 
	C105.848503,62.012249 105.676048,66.774139 105.304535,71.781113 
	C103.452003,62.546127 103.182060,53.166767 106.871704,44.009937 
	C111.660393,32.125526 123.499023,27.252064 132.949097,34.446732 
	C137.047546,37.567017 138.888062,43.653065 141.692749,49.023605 
	C141.099716,50.742195 140.568054,51.829205 140.036407,52.916214 
z"/>
<path fill="#444444" opacity="1.000000" stroke="none" 
	d="
M112.527229,109.036423 
	C112.014893,109.796852 111.287880,111.088646 110.234802,111.462830 
	C92.329239,117.825272 74.946426,125.206200 59.551514,136.625000 
	C58.773216,137.202286 57.738586,137.433990 56.500294,137.934265 
	C62.716938,133.196762 68.726280,127.266174 75.916756,123.753120 
	C87.591141,118.049355 100.039299,113.929337 112.527229,109.036423 
z"/>
<path fill="#4B4B4B" opacity="1.000000" stroke="none" 
	d="
M40.911266,120.588646 
	C40.467163,121.027657 40.043846,121.011856 39.309166,120.995926 
	C38.997803,120.995804 39.013428,121.005203 39.013428,121.005203 
	C37.704426,115.592781 36.838737,110.018059 34.936668,104.822762 
	C33.580254,101.117867 30.012623,99.389175 25.902374,100.389046 
	C21.917280,101.358459 21.284733,104.707962 21.028616,108.177032 
	C20.623781,113.660484 21.326942,118.768806 25.361586,122.999413 
	C26.191372,123.869499 26.428982,125.304329 26.886042,126.747124 
	C19.443487,121.230011 17.933605,113.439835 19.294163,104.712845 
	C19.831074,101.268967 21.676075,98.861557 25.304739,98.373260 
	C29.821323,97.765488 33.968586,98.492737 36.751396,102.582741 
	C40.359299,107.885399 41.363338,113.848434 40.911266,120.588646 
z"/>
<path fill="#474747" opacity="1.000000" stroke="none" 
	d="
M37.986454,91.000000 
	C40.170448,94.687965 42.105141,98.556625 44.609673,102.012276 
	C47.036869,105.361214 50.618195,106.833549 54.758450,105.405037 
	C58.922798,103.968201 60.099770,100.384209 60.872082,96.434784 
	C61.367878,93.899406 62.470814,91.482750 63.574852,88.966141 
	C63.660046,91.873238 63.726452,94.870354 63.232925,97.772240 
	C62.073601,104.588943 58.742935,108.253006 53.685280,108.750229 
	C48.119595,109.297401 42.324455,105.811539 39.945389,100.188782 
	C38.794907,97.469704 38.108093,94.554428 37.371445,91.358360 
	C37.531544,90.988731 37.986454,91.000000 37.986454,91.000000 
z"/>
<path fill="#525252" opacity="1.000000" stroke="none" 
	d="
M196.013840,172.676056 
	C195.412415,173.027130 194.929398,173.017609 194.077454,173.002853 
	C194.808350,167.367661 196.301407,161.780151 196.915253,156.097672 
	C197.821518,147.708069 196.102753,139.699448 191.872070,132.282120 
	C191.254898,131.200073 191.204712,129.794647 190.954483,128.245056 
	C200.110458,140.191635 202.268906,153.581253 197.647827,168.084366 
	C197.193314,169.510880 196.639801,170.905853 196.013840,172.676056 
z"/>
<path fill="#535353" opacity="1.000000" stroke="none" 
	d="
M203.719650,396.097961 
	C204.439468,386.757477 203.226685,377.705750 199.826599,368.943970 
	C199.309418,367.611267 199.305115,366.079590 199.129395,364.341064 
	C204.278763,371.126373 206.202118,379.114288 205.992676,387.721161 
	C205.932739,390.185059 205.939743,392.650513 205.541595,395.587402 
	C204.684647,396.072357 204.202148,396.085175 203.719650,396.097961 
z"/>
<path fill="#525252" opacity="1.000000" stroke="none" 
	d="
M37.990860,90.543510 
	C37.986454,91.000000 37.531544,90.988731 37.304623,90.985237 
	C37.033539,86.774002 36.094986,82.330650 37.128635,78.406837 
	C39.383598,69.846855 45.473530,67.710739 53.945930,71.975128 
	C54.250629,72.188248 54.204792,72.530884 54.106697,72.774109 
	C54.008606,73.017334 53.865856,73.161171 53.865856,73.161171 
	C43.167603,70.264183 38.471214,73.661079 38.042694,84.633392 
	C37.971779,86.449120 38.008362,88.269035 37.990860,90.543510 
z"/>
<path fill="#474747" opacity="1.000000" stroke="none" 
	d="
M89.071938,87.145943 
	C89.155663,85.898659 89.173576,84.591545 89.326859,83.300514 
	C90.117958,76.637688 90.931061,69.977371 91.768547,63.320217 
	C91.928513,62.048611 92.232391,60.795113 92.779266,59.602928 
	C93.400055,60.460388 93.711456,61.248177 94.022858,62.035965 
	C94.022858,62.035969 93.971786,62.000492 93.970543,62.444481 
	C93.977470,67.405266 93.985634,71.922058 93.993797,76.438850 
	C93.993797,76.438850 93.999397,76.692680 93.826553,77.150345 
	C93.433006,78.556511 93.212296,79.504997 92.991585,80.453491 
	C92.991585,80.453491 93.004288,80.683609 92.987991,80.927391 
	C92.954742,81.423180 92.942421,81.675453 92.934723,81.928009 
	C92.247002,83.144112 91.559273,84.360214 90.406433,85.947952 
	C89.624649,86.553864 89.307983,86.788124 88.991310,87.022385 
	C88.991310,87.022385 89.068573,87.093536 89.071938,87.145943 
z"/>
<path fill="#474747" opacity="1.000000" stroke="none" 
	d="
M140.031387,53.382626 
	C140.568054,51.829205 141.099716,50.742195 141.771164,49.389732 
	C144.144821,56.391193 142.710220,63.399273 140.231827,70.667847 
	C139.606995,69.996849 138.736938,68.979622 138.793137,68.016426 
	C139.069092,63.286076 139.591202,58.570095 140.031387,53.382626 
z"/>
<path fill="#434444" opacity="1.000000" stroke="none" 
	d="
M155.002258,37.315147 
	C155.628265,37.496944 156.623428,38.075359 156.608200,38.625835 
	C156.414444,45.632221 156.104813,52.636219 155.714096,59.634651 
	C155.685242,60.151340 154.806396,60.620571 154.124908,61.060001 
	C153.927109,61.008137 153.984268,61.000648 153.982880,60.622108 
	C153.685059,58.204231 153.388626,56.164894 153.092194,54.125561 
	C153.695404,48.649967 154.298615,43.174374 155.002258,37.315147 
z"/>
<path fill="#454545" opacity="1.000000" stroke="none" 
	d="
M23.902920,216.611816 
	C25.452431,221.902130 27.035765,227.604691 28.540668,233.327881 
	C28.560087,233.401733 27.580734,233.738220 26.851082,233.843246 
	C25.733305,228.164795 24.832016,222.595230 23.902920,216.611816 
z"/>
<path fill="#4B4B4B" opacity="1.000000" stroke="none" 
	d="
M203.599945,396.433228 
	C204.202148,396.085175 204.684647,396.072357 205.525360,396.058472 
	C204.411819,401.188843 202.940048,406.320282 201.254578,411.734131 
	C200.867889,412.014435 200.694901,412.012421 200.260956,412.005188 
	C200.000000,412.000000 199.996353,411.996826 199.996353,411.996826 
	C201.157654,406.920715 202.318954,401.844574 203.599945,396.433228 
z"/>
<path fill="#4B4B4B" opacity="1.000000" stroke="none" 
	d="
M171.911469,110.618958 
	C164.909073,109.061264 157.749802,107.194908 150.547302,105.108307 
	C151.295868,104.621132 152.087677,104.354218 152.879471,104.087311 
	C157.410690,105.060333 161.998642,105.833916 166.446640,107.099449 
	C168.365173,107.645309 169.994110,109.208992 171.911469,110.618958 
z"/>
<path fill="#494949" opacity="1.000000" stroke="none" 
	d="
M139.089447,105.007988 
	C132.609589,106.094696 126.129723,107.181412 119.305740,108.154312 
	C123.062012,106.783730 127.162392,105.526955 131.987946,104.284790 
	C134.838562,104.535591 136.964005,104.771790 139.089447,105.007988 
z"/>
<path fill="#494949" opacity="1.000000" stroke="none" 
	d="
M167.696686,15.114361 
	C165.183823,19.016388 162.335236,23.001249 159.235870,27.032421 
	C161.777023,23.118219 164.568985,19.157707 167.696686,15.114361 
z"/>
<path fill="#2E2E2E" opacity="1.000000" stroke="none" 
	d="
M23.703014,186.038559 
	C23.969311,188.813126 23.975342,191.945480 23.974850,195.999237 
	C23.976412,200.620346 23.984495,204.320023 23.992580,208.019714 
	C23.998730,209.431244 24.004881,210.842758 24.037891,212.854721 
	C24.064753,213.455154 24.087147,213.811874 24.087147,213.811874 
	C24.065561,214.314651 24.043974,214.817444 23.998207,215.697296 
	C23.678308,211.987106 23.183529,207.902237 23.134607,203.812027 
	C23.065197,198.008850 23.324125,192.201752 23.703014,186.038559 
z"/>
<path fill="#414141" opacity="1.000000" stroke="none" 
	d="
M139.475037,105.071487 
	C136.964005,104.771790 134.838562,104.535591 132.348083,104.161774 
	C138.644531,104.030685 145.306000,104.037224 152.423462,104.065536 
	C152.087677,104.354218 151.295868,104.621132 150.190125,104.954605 
	C146.537659,105.059105 143.199127,105.097046 139.475037,105.071487 
z"/>
<path fill="#2E2E2E" opacity="1.000000" stroke="none" 
	d="
M94.234169,76.062653 
	C93.985634,71.922058 93.977470,67.405266 93.988113,62.418831 
	C94.162796,66.528282 94.318672,71.107368 94.234169,76.062653 
z"/>
<path fill="#3B3B3C" opacity="1.000000" stroke="none" 
	d="
M153.067108,54.522339 
	C153.388626,56.164894 153.685059,58.204231 153.979172,60.649788 
	C153.665253,59.010376 153.353638,56.964745 153.067108,54.522339 
z"/>
<path fill="#2E2E2E" opacity="1.000000" stroke="none" 
	d="
M93.997681,61.669884 
	C93.711456,61.248177 93.400055,60.460388 92.992035,59.369720 
	C92.915359,58.865158 92.935303,58.663475 92.988617,58.159416 
	C93.338821,59.005962 93.655663,60.154884 93.997681,61.669884 
z"/>
<path fill="#2E2E2E" opacity="1.000000" stroke="none" 
	d="
M24.757263,181.115875 
	C24.763140,181.968033 24.545868,183.097519 24.212852,184.547592 
	C24.242775,183.709854 24.388445,182.551514 24.757263,181.115875 
z"/>
<path fill="#2E2E2E" opacity="1.000000" stroke="none" 
	d="
M93.207932,80.149429 
	C93.212296,79.504997 93.433006,78.556511 93.814011,77.276672 
	C93.790962,77.912010 93.607620,78.878685 93.207932,80.149429 
z"/>
<path fill="#2E2E2E" opacity="1.000000" stroke="none" 
	d="
M92.951218,81.674515 
	C92.942421,81.675453 92.954742,81.423180 92.978394,81.042221 
	C92.979301,81.082527 92.973503,81.251778 92.951218,81.674515 
z"/>
<path fill="#3C3C3C" opacity="1.000000" stroke="none" 
	d="
M89.252502,86.881935 
	C89.307983,86.788124 89.624649,86.553864 90.194435,86.158096 
	C90.136269,86.244888 89.824982,86.493187 89.252502,86.881935 
z"/>
<path fill="#47704C" opacity="1.000000" stroke="none" 
	d="
M196.925262,380.002411 
	C197.263519,382.120026 197.601776,384.237640 197.974655,387.022430 
	C197.407700,395.111359 196.465317,402.421570 192.806320,409.139801 
	C192.074829,410.482849 192.343597,412.370758 192.151138,414.007416 
	C192.151138,414.007416 192.095963,414.057129 191.746719,414.178467 
	C189.257004,417.147766 187.116547,419.995758 184.976074,422.843689 
	C181.460220,426.177277 177.944397,429.510864 173.788025,433.005432 
	C172.342529,433.436432 171.537582,433.706451 170.732635,433.976501 
	C170.279724,434.072754 169.826797,434.169006 168.870178,434.542969 
	C167.554886,435.202911 166.743256,435.585144 165.931641,435.967407 
	C165.931641,435.967407 165.987030,436.009827 165.774994,436.126160 
	C165.306091,436.504486 165.049225,436.766510 164.792374,437.028534 
	C164.411911,437.009949 164.031448,436.991333 163.086685,437.088074 
	C162.230103,437.471497 161.937820,437.739624 161.645554,438.007751 
	C161.645554,438.007751 161.315704,438.005035 160.861084,438.064209 
	C159.913269,438.415741 159.420044,438.708069 158.926834,439.000397 
	C158.926834,439.000397 158.998535,438.989258 158.649994,438.982086 
	C157.225754,439.318359 156.150055,439.661835 154.867981,440.164001 
	C154.375961,440.519958 154.090271,440.717163 153.450439,440.737183 
	C148.073654,440.389069 143.051010,440.218140 137.885880,440.038757 
	C137.743393,440.030334 137.457932,440.030151 137.134415,439.799286 
	C134.528412,439.036316 132.245941,438.504211 129.978943,437.992706 
	C129.994415,438.013336 130.045227,438.004425 129.836960,437.746429 
	C128.424942,436.980286 127.221191,436.472137 126.001816,435.982605 
	C125.986183,436.001251 126.034447,435.995514 125.854996,435.723114 
	C125.273071,435.292389 124.870590,435.134064 124.482697,434.993042 
	C124.497284,435.010406 124.541031,435.022247 124.244102,434.762878 
	C123.455246,434.328400 122.963318,434.153320 122.485641,433.994049 
	C122.499878,434.009888 122.542175,434.014954 122.285942,433.789978 
	C121.035812,433.031372 120.041924,432.497772 119.048035,431.964172 
	C119.048035,431.964142 119.031395,431.967041 118.882080,431.761566 
	C118.307991,431.685852 117.883224,431.815613 117.458450,431.945404 
	C117.458458,431.945404 117.177185,431.859833 116.807907,431.881714 
	C116.438622,431.903595 115.996910,431.989899 115.996910,431.989899 
	C115.996910,431.989899 116.001511,432.001099 115.894897,431.677002 
	C112.173027,426.921722 108.557777,422.490601 104.909042,417.691406 
	C102.250847,411.519165 99.626144,405.715027 96.913055,399.539856 
	C93.517937,384.768066 90.211197,370.367249 86.844193,355.589539 
	C84.859131,348.427979 82.934311,341.643311 80.912048,334.510925 
	C78.052727,328.121429 75.449661,322.000824 72.499130,316.052582 
	C63.708900,298.331604 54.782227,280.678253 45.769943,262.677124 
	C43.597275,257.260712 40.992928,252.311340 39.647587,247.040619 
	C36.775467,235.788391 34.555725,224.369629 32.028255,212.550171 
	C31.982012,205.699844 31.976217,199.318420 31.974751,192.824646 
	C31.979076,192.712265 31.970743,192.487518 32.212837,192.156677 
	C32.898022,189.322876 33.341106,186.819901 33.806068,183.967697 
	C34.903744,179.806091 35.979553,175.993698 37.268833,171.909790 
	C46.129047,155.986359 58.419388,143.852325 74.083801,135.473175 
	C85.434402,129.401566 97.332443,124.353355 109.364807,118.810196 
	C118.165421,116.813301 126.587593,114.854988 135.450867,112.915894 
	C137.378387,112.904091 138.891556,113.043571 140.346985,112.815117 
	C152.134399,110.964890 162.955170,113.524895 173.263550,119.991516 
	C174.702499,120.736351 175.867401,121.296524 177.032288,121.856705 
	C177.578491,122.433632 178.124695,123.010559 178.991913,124.077011 
	C180.217056,125.340828 181.121185,126.115120 182.025330,126.889420 
	C182.025330,126.889420 182.065094,126.933685 182.150116,127.311050 
	C185.174805,135.144821 188.114456,142.601227 191.038849,150.494629 
	C191.032745,153.269196 191.041901,155.606796 190.899796,158.254990 
	C190.486343,159.904800 190.224167,161.244019 189.763763,162.855927 
	C189.380386,163.766129 189.195236,164.403610 188.839569,165.339706 
	C187.923767,167.764648 187.178497,169.890991 186.128174,172.140900 
	C185.539474,172.594131 185.255829,172.923782 184.958466,173.338806 
	C184.944763,173.424164 184.944534,173.597107 184.732452,173.862274 
	C184.229691,174.733093 183.939026,175.338745 183.415710,176.141220 
	C182.117493,177.816422 181.051941,179.294769 179.793640,181.035278 
	C179.300339,181.875320 178.999771,182.453201 178.437683,183.211273 
	C172.753036,188.839539 167.329895,194.287628 161.906738,199.735718 
	C159.363327,202.270447 156.819916,204.805191 153.814758,207.799774 
	C152.238647,209.858261 151.124298,211.456924 150.009964,213.055588 
	C149.393143,213.534210 148.776306,214.012817 147.761429,214.944122 
	C146.195084,216.824753 145.026779,218.252686 143.858490,219.680634 
	C142.290924,222.231247 140.723343,224.781860 138.947220,227.984375 
	C136.135361,235.473373 133.532059,242.310440 130.694778,249.274643 
	C129.992523,249.932297 129.524231,250.462845 129.046036,251.365585 
	C129.046860,252.480530 129.057602,253.223251 129.068344,253.965988 
	C126.138031,269.593353 128.985550,284.417206 135.903214,298.449219 
	C145.674271,318.269165 161.903336,332.780090 177.910889,348.264404 
	C186.835281,357.793304 192.890549,368.300079 196.925262,380.002411 
z"/>
<path fill="#454545" opacity="1.000000" stroke="none" 
	d="
M108.986366,118.848770 
	C97.332443,124.353355 85.434402,129.401566 74.083801,135.473175 
	C58.419388,143.852325 46.129047,155.986359 37.089211,171.717529 
	C36.465214,171.535294 36.234306,171.273819 36.003403,171.012329 
	C40.162922,164.686417 43.503471,157.583328 48.633087,152.178024 
	C65.058037,134.870377 85.581062,124.069702 108.615616,117.363693 
	C108.992180,118.026512 108.989273,118.437645 108.986366,118.848770 
z"/>
<path fill="#505050" opacity="1.000000" stroke="none" 
	d="
M35.788528,171.281540 
	C36.234306,171.273819 36.465214,171.535294 36.875740,171.989044 
	C35.979553,175.993698 34.903744,179.806091 33.599098,184.232941 
	C32.903755,187.394119 32.437248,189.940826 31.970745,192.487518 
	C31.970743,192.487518 31.979076,192.712265 31.838406,193.221069 
	C31.821392,200.159622 31.945049,206.589355 32.068707,213.019104 
	C34.555725,224.369629 36.775467,235.788391 39.647587,247.040619 
	C40.992928,252.311340 43.597275,257.260712 45.440250,262.687836 
	C44.807976,263.036346 44.366482,263.052765 43.924992,263.069153 
	C43.924992,263.069153 43.937157,263.023529 43.835327,262.763550 
	C43.446625,261.997070 43.159744,261.490570 42.872871,260.984070 
	C35.464256,246.436157 31.293734,230.898239 30.199150,214.723312 
	C29.532370,204.870132 29.984770,194.866653 30.874903,185.015671 
	C31.289864,180.423325 33.937847,176.032776 35.788528,171.281540 
z"/>
<path fill="#535353" opacity="1.000000" stroke="none" 
	d="
M43.979855,263.434631 
	C44.366482,263.052765 44.807976,263.036346 45.579163,263.009216 
	C54.782227,280.678253 63.708900,298.331604 72.499130,316.052582 
	C75.449661,322.000824 78.052727,328.121429 80.897766,334.974854 
	C80.939201,337.041687 80.897484,338.296906 80.855766,339.552094 
	C69.290627,316.160522 57.714478,292.774353 46.182274,269.366547 
	C45.306862,267.589661 44.743256,265.659180 43.979855,263.434631 
z"/>
<path fill="#555555" opacity="1.000000" stroke="none" 
	d="
M86.904449,355.966431 
	C90.211197,370.367249 93.517937,384.768066 96.913971,399.937134 
	C97.433823,402.745300 97.864380,404.785248 98.187515,406.895569 
	C98.080109,406.966003 97.866005,407.107971 97.865997,407.107971 
	C96.116150,402.486053 93.856133,397.986053 92.716515,393.218262 
	C89.830421,381.143707 87.447266,368.948914 85.193817,356.379883 
	C85.984787,355.960449 86.444618,355.963440 86.904449,355.966431 
z"/>
<path fill="#434444" opacity="1.000000" stroke="none" 
	d="
M189.961975,162.583221 
	C190.224167,161.244019 190.486343,159.904800 191.023376,157.909302 
	C191.216858,154.854538 191.135498,152.456085 191.054123,150.057632 
	C188.114456,142.601227 185.174805,135.144821 182.172516,127.330643 
	C183.546967,128.301575 185.472488,129.369400 186.343582,131.000397 
	C193.130219,143.707565 196.115051,156.821716 189.419220,170.580109 
	C188.501923,172.464935 186.962158,174.046829 185.367920,175.896637 
	C185.025238,176.024323 184.903214,175.902664 184.919922,175.520050 
	C184.939270,174.624008 184.941910,174.110550 184.944550,173.597107 
	C184.944534,173.597107 184.944763,173.424164 185.210831,173.140656 
	C185.795685,172.577194 186.114456,172.297256 186.433228,172.017319 
	C187.178497,169.890991 187.923767,167.764648 188.982819,165.043900 
	C189.518402,163.827393 189.740189,163.205307 189.961975,162.583221 
z"/>
<path fill="#414141" opacity="1.000000" stroke="none" 
	d="
M172.989471,119.806847 
	C162.955170,113.524895 152.134399,110.964890 140.346985,112.815117 
	C138.891556,113.043571 137.378387,112.904091 135.442596,112.609680 
	C134.981140,111.875443 134.969040,111.466614 134.956940,111.057793 
	C148.260803,108.650124 161.023941,109.438446 172.798370,117.977356 
	C173.014420,118.957809 173.001953,119.382332 172.989471,119.806847 
z"/>
<path fill="#474747" opacity="1.000000" stroke="none" 
	d="
M197.060028,379.667358 
	C192.890549,368.300079 186.835281,357.793304 178.200775,348.445251 
	C178.997620,348.297791 180.364517,348.012665 180.935623,348.559174 
	C188.769821,356.055908 194.075302,365.158478 197.375824,375.431152 
	C197.748886,376.592255 197.275620,378.025330 197.060028,379.667358 
z"/>
<path fill="#434444" opacity="1.000000" stroke="none" 
	d="
M179.986374,180.773132 
	C181.051941,179.294769 182.117493,177.816422 183.730667,176.132736 
	C184.486588,175.919159 184.694901,175.910919 184.903214,175.902664 
	C184.903214,175.902664 185.025238,176.024323 185.088104,176.086731 
	C180.420181,185.248428 173.721207,192.676193 165.648544,198.895935 
	C164.823700,199.531448 163.532227,199.561325 162.182022,199.803986 
	C167.329895,194.287628 172.753036,188.839539 178.627563,182.943634 
	C179.381424,181.921585 179.683899,181.347351 179.986374,180.773132 
z"/>
<path fill="#434444" opacity="1.000000" stroke="none" 
	d="
M192.414734,413.813049 
	C192.343597,412.370758 192.074829,410.482849 192.806320,409.139801 
	C196.465317,402.421570 197.407700,395.111359 198.117279,387.339630 
	C198.602112,389.639709 199.838196,392.524811 199.189926,394.894409 
	C197.450134,401.253662 194.904144,407.392395 192.414734,413.813049 
z"/>
<path fill="#474747" opacity="1.000000" stroke="none" 
	d="
M134.524841,111.051453 
	C134.969040,111.466614 134.981140,111.875443 135.001495,112.590469 
	C126.587593,114.854988 118.165421,116.813301 109.364807,118.810196 
	C108.989273,118.437645 108.992180,118.026512 108.997147,117.306114 
	C117.363708,115.012932 125.728210,113.029022 134.524841,111.051453 
z"/>
<path fill="#494949" opacity="1.000000" stroke="none" 
	d="
M130.928741,249.147522 
	C133.532059,242.310440 136.135361,235.473373 138.909210,228.332108 
	C139.246201,228.308975 139.622589,228.673309 139.548874,228.859070 
	C136.270691,237.120438 132.952881,245.366089 129.354065,253.789795 
	C129.057602,253.223251 129.046860,252.480530 129.269531,251.219879 
	C129.978210,250.183807 130.453476,249.665665 130.928741,249.147522 
z"/>
<path fill="#505050" opacity="1.000000" stroke="none" 
	d="
M137.457932,440.030151 
	C137.457932,440.030151 137.743393,440.030334 138.270691,440.178589 
	C143.800186,440.522675 148.802383,440.718536 153.804596,440.914368 
	C154.090271,440.717163 154.375961,440.519958 155.098572,440.297424 
	C155.974823,440.578644 156.414139,440.885223 156.853455,441.191772 
	C146.318878,444.826782 136.256332,442.806549 126.211136,438.299774 
	C126.049995,437.951843 126.287498,437.702087 126.659760,437.754211 
	C128.036423,437.872345 129.040833,437.938385 130.045227,438.004425 
	C130.045227,438.004425 129.994415,438.013336 130.267792,438.235962 
	C132.846741,438.982422 135.152344,439.506287 137.457932,440.030151 
z"/>
<path fill="#4B4B4B" opacity="1.000000" stroke="none" 
	d="
M86.844193,355.589539 
	C86.444618,355.963440 85.984787,355.960449 85.176964,355.949036 
	C83.534790,350.709930 82.240608,345.479309 80.901093,339.900391 
	C80.897484,338.296906 80.939201,337.041687 80.995209,335.322571 
	C82.934311,341.643311 84.859131,348.427979 86.844193,355.589539 
z"/>
<path fill="#505050" opacity="1.000000" stroke="none" 
	d="
M104.942528,418.059448 
	C108.557777,422.490601 112.173027,426.921722 115.900803,431.674194 
	C112.077362,427.920380 108.141380,423.845276 104.092148,419.175964 
	C103.982597,418.397766 103.986290,418.213745 104.227936,418.043762 
	C104.465874,418.057831 104.942528,418.059448 104.942528,418.059448 
z"/>
<path fill="#434444" opacity="1.000000" stroke="none" 
	d="
M185.139587,422.983002 
	C187.116547,419.995758 189.257004,417.147766 191.720581,414.204834 
	C190.724457,417.807831 190.709778,422.481445 185.139587,422.983002 
z"/>
<path fill="#505050" opacity="1.000000" stroke="none" 
	d="
M124.541031,435.022247 
	C124.541031,435.022247 124.497284,435.010406 124.686333,435.244354 
	C125.261734,435.650696 125.648087,435.823120 126.034439,435.995544 
	C126.034447,435.995514 125.986183,436.001251 126.009254,436.277466 
	C126.117386,436.936462 126.202438,437.319275 126.287491,437.702087 
	C126.287498,437.702087 126.049995,437.951843 125.929466,438.079529 
	C123.666359,436.812012 121.523773,435.416779 119.633987,433.847717 
	C120.771912,433.787598 121.657043,433.901276 122.542175,434.014954 
	C122.542175,434.014954 122.499878,434.009888 122.775909,434.264374 
	C123.548302,434.686646 124.044670,434.854462 124.541031,435.022247 
z"/>
<path fill="#434444" opacity="1.000000" stroke="none" 
	d="
M150.283539,213.078781 
	C151.124298,211.456924 152.238647,209.858261 153.620331,208.067200 
	C152.777481,209.617203 151.667297,211.359589 150.283539,213.078781 
z"/>
<path fill="#434444" opacity="1.000000" stroke="none" 
	d="
M144.128799,219.711197 
	C145.026779,218.252686 146.195084,216.824753 147.566940,215.164886 
	C148.828873,218.065781 147.461334,219.497833 144.128799,219.711197 
z"/>
<path fill="#454545" opacity="1.000000" stroke="none" 
	d="
M24.130260,207.638855 
	C23.984495,204.320023 23.976412,200.620346 23.984039,196.460022 
	C24.089146,199.752258 24.178543,203.505112 24.130260,207.638855 
z"/>
<path fill="#555555" opacity="1.000000" stroke="none" 
	d="
M103.989990,418.029724 
	C103.986290,418.213745 103.982597,418.397766 103.974838,418.859467 
	C102.611526,416.707825 101.252274,414.278503 99.942871,411.424438 
	C99.992729,410.999725 100.181511,410.870972 100.386932,411.136047 
	C101.724899,413.610626 102.857445,415.820190 103.989990,418.029724 
z"/>
<path fill="#434444" opacity="1.000000" stroke="none" 
	d="
M173.263550,119.991516 
	C173.001953,119.382332 173.014420,118.957809 173.040497,118.212204 
	C174.291870,119.021759 175.529617,120.152405 176.899826,121.569870 
	C175.867401,121.296524 174.702499,120.736351 173.263550,119.991516 
z"/>
<path fill="#434444" opacity="1.000000" stroke="none" 
	d="
M181.886002,126.622803 
	C181.121185,126.115120 180.217056,125.340828 179.221252,124.267853 
	C180.001938,124.764847 180.874298,125.560516 181.886002,126.622803 
z"/>
<path fill="#2E2E2E" opacity="1.000000" stroke="none" 
	d="
M157.101837,440.996277 
	C156.414139,440.885223 155.974823,440.578644 155.304932,440.138672 
	C156.150055,439.661835 157.225754,439.318359 158.656387,438.946350 
	C158.457611,439.545471 157.903915,440.173157 157.101837,440.996277 
z"/>
<path fill="#2E2E2E" opacity="1.000000" stroke="none" 
	d="
M166.190582,435.974731 
	C166.743256,435.585144 167.554886,435.202911 168.681351,434.679626 
	C168.147308,435.019775 167.298416,435.500916 166.190582,435.974731 
z"/>
<path fill="#2E2E2E" opacity="1.000000" stroke="none" 
	d="
M122.285942,433.789978 
	C121.657043,433.901276 120.771912,433.787598 119.460251,433.526611 
	C119.032005,433.065887 119.029861,432.752472 119.037659,432.201599 
	C120.041924,432.497772 121.035812,433.031372 122.285942,433.789978 
z"/>
<path fill="#434444" opacity="1.000000" stroke="none" 
	d="
M198.479187,383.515076 
	C198.458694,383.501160 198.499695,383.528992 198.479187,383.515076 
z"/>
<path fill="#2E2E2E" opacity="1.000000" stroke="none" 
	d="
M171.049377,433.926392 
	C171.537582,433.706451 172.342529,433.436432 173.468750,433.165192 
	C172.982056,433.401398 172.174072,433.638824 171.049377,433.926392 
z"/>
<path fill="#2E2E2E" opacity="1.000000" stroke="none" 
	d="
M159.194122,438.901611 
	C159.420044,438.708069 159.913269,438.415741 160.697083,438.081604 
	C160.478928,438.294128 159.970154,438.548492 159.194122,438.901611 
z"/>
<path fill="#555555" opacity="1.000000" stroke="none" 
	d="
M98.941757,409.048523 
	C98.654160,408.572754 98.366570,408.096954 97.972488,407.364563 
	C97.866005,407.107971 98.080109,406.966003 98.333176,407.137939 
	C98.778282,407.839844 98.970314,408.369873 99.107056,408.936829 
	C99.051765,408.973755 98.941757,409.048523 98.941757,409.048523 
z"/>
<path fill="#555555" opacity="1.000000" stroke="none" 
	d="
M99.898270,411.064026 
	C99.574928,410.612854 99.346046,410.097382 99.029465,409.315216 
	C98.941757,409.048523 99.051765,408.973755 99.266281,409.165527 
	C99.714371,409.861877 99.947945,410.366425 100.181519,410.870972 
	C100.181511,410.870972 99.992729,410.999725 99.898270,411.064026 
z"/>
<path fill="#535353" opacity="1.000000" stroke="none" 
	d="
M42.978539,261.257568 
	C43.159744,261.490570 43.446625,261.997070 43.858879,262.765228 
	C43.684246,262.528290 43.384232,262.029694 42.978539,261.257568 
z"/>
<path fill="#2E2E2E" opacity="1.000000" stroke="none" 
	d="
M164.999786,436.849884 
	C165.049225,436.766510 165.306091,436.504486 165.797852,436.099792 
	C165.757553,436.195160 165.482376,436.433197 164.999786,436.849884 
z"/>
<path fill="#2E2E2E" opacity="1.000000" stroke="none" 
	d="
M161.893036,437.849243 
	C161.937820,437.739624 162.230103,437.471497 162.801056,437.095825 
	C162.766647,437.222443 162.453583,437.456604 161.893036,437.849243 
z"/>
<path fill="#505050" opacity="1.000000" stroke="none" 
	d="
M116.111862,432.015991 
	C115.996910,431.989899 116.438622,431.903595 116.661072,431.874634 
	C116.686867,431.989746 116.467964,432.055237 116.111862,432.015991 
z"/>
<path fill="#2E2E2E" opacity="1.000000" stroke="none" 
	d="
M117.850761,431.957031 
	C117.883224,431.815613 118.307991,431.685852 118.880310,431.754272 
	C118.766266,431.957916 118.504669,431.963318 117.850761,431.957031 
z"/>
<path fill="#4B4B4B" opacity="1.000000" stroke="none" 
	d="
M200.001465,412.001740 
	C200.002930,412.003479 199.959183,412.017944 199.977768,412.007385 
	C199.996353,411.996826 200.000000,412.000000 200.001465,412.001740 
z"/>
<path fill="#4B4B4B" opacity="1.000000" stroke="none" 
	d="
M174.001129,333.997986 
	C174.001129,333.997986 174.016449,334.037201 174.008224,334.018616 
	C174.000000,334.000000 174.001129,333.997986 174.001129,333.997986 
z"/>
<path fill="#4B4B4B" opacity="1.000000" stroke="none" 
	d="
M173.003906,332.997620 
	C173.247513,333.198578 173.474731,333.415131 173.845261,333.821411 
	C174.001129,333.997986 174.000000,334.000000 173.998962,334.000610 
	C173.755463,333.800964 173.525909,333.586884 173.152283,333.183472 
	C172.995331,333.007935 173.000061,333.000000 173.003906,332.997620 
z"/>
<path fill="#454545" opacity="1.000000" stroke="none" 
	d="
M24.084000,213.723511 
	C24.087147,213.811874 24.064753,213.455154 24.053864,213.278000 
	C24.061779,213.278549 24.074406,213.456665 24.084000,213.723511 
z"/>
<path fill="#444444" opacity="1.000000" stroke="none" 
	d="
M54.044952,140.043350 
	C54.044952,140.043350 53.939220,139.997009 53.971428,139.998169 
	C54.003635,139.999344 54.044952,140.043350 54.044952,140.043350 
z"/>
<path fill="#444444" opacity="1.000000" stroke="none" 
	d="
M53.981987,139.978317 
	C53.960339,139.957291 54.063568,140.000961 54.054260,140.022156 
	C54.044952,140.043350 54.003635,139.999344 53.981987,139.978317 
z"/>
<path fill="#47704C" opacity="1.000000" stroke="none" 
	d="
M186.049393,17.919012 
	C194.682266,22.875868 198.255524,31.043413 198.905045,40.298290 
	C199.376144,47.010880 198.255646,53.835175 197.781723,61.184269 
	C190.144501,79.496422 182.925186,81.861961 171.007751,79.050972 
	C171.007751,79.050972 170.965546,79.049049 170.848999,78.718231 
	C169.518692,76.596558 168.304916,74.805717 167.091156,73.014870 
	C160.621353,59.174549 159.397964,45.122658 166.336472,31.166679 
	C168.432693,26.950384 171.953674,23.442434 175.337128,19.246805 
	C179.251282,18.562065 182.650330,18.240540 186.049393,17.919012 
z"/>
<path fill="#505050" opacity="1.000000" stroke="none" 
	d="
M171.239197,79.323257 
	C182.925186,81.861961 190.144501,79.496422 197.822479,61.510605 
	C198.438126,61.388748 199.395798,61.507713 199.398056,61.642651 
	C199.554718,71.011452 186.723465,82.854774 177.332596,81.843872 
	C175.321243,81.627365 173.421692,80.372208 171.239197,79.323257 
z"/>
<path fill="#444444" opacity="1.000000" stroke="none" 
	d="
M186.121033,17.717932 
	C182.650330,18.240540 179.251282,18.562065 175.529861,18.966900 
	C176.418335,17.839464 177.489868,15.833591 178.870422,15.591724 
	C181.362747,15.155081 184.728836,13.359392 186.121033,17.717932 
z"/>
<path fill="#505050" opacity="1.000000" stroke="none" 
	d="
M166.817001,73.014969 
	C168.304916,74.805717 169.518692,76.596558 170.838074,78.700150 
	C169.332947,77.237457 167.722214,75.462013 166.055908,73.343185 
	C166.000336,72.999802 165.994614,73.006088 165.994614,73.006088 
	C166.177368,73.009087 166.360107,73.012077 166.817001,73.014969 
z"/>
<path fill="#505050" opacity="1.000000" stroke="none" 
	d="
M166.004059,72.996170 
	C166.007767,72.992546 165.977585,72.966316 165.986099,72.986206 
	C165.994614,73.006088 166.000336,72.999802 166.004059,72.996170 
z"/>
<path fill="#47704C" opacity="1.000000" stroke="none" 
	d="
M73.802094,59.093067 
	C75.598366,57.553936 77.394638,56.014805 79.190910,54.475674 
	C80.670494,56.323509 82.712288,57.953373 83.528442,60.058426 
	C86.440346,67.568932 85.773293,75.021873 81.706146,82.596893 
	C79.508293,82.342255 77.290237,82.121140 75.997223,80.911354 
	C74.552841,79.559937 73.947952,77.311272 72.981720,75.467834 
	C72.985733,75.482559 73.009308,75.501945 73.012436,74.991302 
	C73.013702,70.486435 73.011833,66.492210 72.998138,62.507389 
	C72.986320,62.516788 72.978287,62.545906 73.210114,62.255264 
	C73.561996,61.007439 73.682045,60.050255 73.802094,59.093067 
z"/>
<path fill="#535353" opacity="1.000000" stroke="none" 
	d="
M73.009308,75.501945 
	C73.009308,75.501945 72.985733,75.482559 72.924896,75.920685 
	C72.922920,77.571030 72.981781,78.783234 73.040642,79.995445 
	C68.823875,74.303917 68.751472,62.930016 72.993744,59.446861 
	C73.046745,60.827293 73.012520,61.686600 72.978287,62.545906 
	C72.978287,62.545906 72.986320,62.516788 72.757477,62.837639 
	C70.753052,67.348358 70.571831,71.476143 73.009308,75.501945 
z"/>
<path fill="#2E2E2E" opacity="1.000000" stroke="none" 
	d="
M73.018524,80.005768 
	C72.981781,78.783234 72.922920,77.571030 72.920883,75.905960 
	C73.947952,77.311272 74.552841,79.559937 75.997223,80.911354 
	C77.290237,82.121140 79.508293,82.342255 81.649200,82.954643 
	C81.980179,82.909706 81.963356,83.348511 81.637329,83.736008 
	C79.883247,84.402100 78.455185,84.680687 77.027122,84.959274 
	C77.027122,84.959274 77.006950,84.990166 76.871994,84.702431 
	C75.830612,83.598312 74.924179,82.781937 74.017746,81.965561 
	C74.017746,81.965561 73.980553,82.000412 73.952461,81.715736 
	C73.618057,80.942696 73.311752,80.454330 73.005440,79.965965 
	C73.005440,79.965965 72.996407,80.016090 73.018524,80.005768 
z"/>
<path fill="#535353" opacity="1.000000" stroke="none" 
	d="
M77.174316,85.214249 
	C78.455185,84.680687 79.883247,84.402100 81.637527,83.955574 
	C81.300613,86.789330 79.730560,87.287331 77.174316,85.214249 
z"/>
<path fill="#535353" opacity="1.000000" stroke="none" 
	d="
M74.114006,82.272293 
	C74.924179,82.781937 75.830612,83.598312 76.877991,84.688919 
	C76.082710,84.168442 75.146492,83.373734 74.114006,82.272293 
z"/>
<path fill="#2E2E2E" opacity="1.000000" stroke="none" 
	d="
M73.210114,62.255264 
	C73.012520,61.686600 73.046745,60.827293 73.164818,59.544910 
	C73.248665,59.121834 73.525917,59.108395 73.664001,59.100731 
	C73.682045,60.050255 73.561996,61.007439 73.210114,62.255264 
z"/>
<path fill="#535353" opacity="1.000000" stroke="none" 
	d="
M73.089691,80.241264 
	C73.311752,80.454330 73.618057,80.942696 73.977821,81.718277 
	C73.745499,81.509178 73.459717,81.012871 73.089691,80.241264 
z"/>
<path fill="#47704C" opacity="1.000000" stroke="none" 
	d="
M124.931229,78.037437 
	C121.041969,78.478897 117.918137,77.087799 115.151596,73.648727 
	C114.701904,72.820694 114.568245,72.428604 114.296204,71.802612 
	C114.076698,71.406715 113.995567,71.244713 113.841873,70.692604 
	C113.352776,64.173538 112.936241,58.044582 112.519714,51.915630 
	C113.358032,50.556061 114.361870,49.270485 115.008026,47.825012 
	C119.484528,37.811085 124.733292,37.146309 131.905487,46.349232 
	C135.992386,54.163200 134.569641,61.594330 133.053070,69.028633 
	C133.053070,69.028633 133.002045,69.000610 132.770569,69.234558 
	C130.003143,72.324814 127.467186,75.181122 124.931229,78.037437 
z"/>
<path fill="#555555" opacity="1.000000" stroke="none" 
	d="
M112.539642,51.633301 
	C112.936241,58.044582 113.352776,64.173538 113.672333,70.837997 
	C113.358261,71.579857 113.151352,71.795975 112.969879,72.009628 
	C112.985138,71.997414 113.014534,71.971237 113.014534,71.971237 
	C108.167923,64.682808 109.549675,57.167740 111.835831,48.949379 
	C112.345207,49.859375 112.559883,50.099953 112.610695,50.371223 
	C112.669212,50.683655 112.582954,51.023201 112.539642,51.633301 
z"/>
<path fill="#4D4E4E" opacity="1.000000" stroke="none" 
	d="
M133.305084,68.772194 
	C134.569641,61.594330 135.992386,54.163200 132.158981,46.586998 
	C132.963211,46.986034 134.548584,47.550961 134.762314,48.444107 
	C136.383759,55.220184 137.436615,62.041023 133.305084,68.772194 
z"/>
<path fill="#4D4E4E" opacity="1.000000" stroke="none" 
	d="
M124.939102,78.267334 
	C127.467186,75.181122 130.003143,72.324814 132.794434,69.249107 
	C132.158768,73.473801 130.599915,77.422226 125.355019,78.951538 
	C124.990204,78.997467 124.959251,78.957146 124.959251,78.957146 
	C124.959251,78.957146 124.946976,78.497238 124.939102,78.267334 
z"/>
<path fill="#555555" opacity="1.000000" stroke="none" 
	d="
M114.434578,72.036507 
	C114.568245,72.428604 114.701904,72.820694 114.878128,73.403030 
	C114.306793,73.214516 113.692909,72.835754 113.046776,72.214111 
	C113.014534,71.971237 112.985138,71.997414 113.339981,72.017288 
	C113.941414,72.036942 114.187996,72.036728 114.434578,72.036507 
z"/>
<path fill="#4D4E4E" opacity="1.000000" stroke="none" 
	d="
M125.005135,79.018044 
	C123.974335,79.331413 122.928612,79.624207 121.882881,79.917000 
	C121.839684,79.684334 121.796486,79.451660 121.753288,79.218987 
	C122.627220,79.137383 123.501144,79.055779 124.667160,78.965652 
	C124.959251,78.957146 124.990204,78.997467 125.005135,79.018044 
z"/>
<path fill="#47704C" opacity="1.000000" stroke="none" 
	d="
M48.164242,97.983330 
	C46.787952,95.225365 45.411663,92.467400 44.029602,88.936783 
	C44.334618,86.365852 44.446754,84.500885 45.020802,82.790977 
	C45.458031,81.488586 46.452526,79.426918 47.250587,79.402740 
	C48.618324,79.361320 50.319305,80.362137 51.363495,81.430511 
	C54.752399,84.897919 55.311813,89.314400 54.919426,93.939911 
	C54.492088,98.977440 53.127930,99.799576 48.164242,97.983330 
z"/>
<path fill="#4D4E4E" opacity="1.000000" stroke="none" 
	d="
M48.158821,98.242325 
	C53.127930,99.799576 54.492088,98.977440 54.919426,93.939911 
	C55.311813,89.314400 54.752399,84.897919 51.363495,81.430511 
	C50.319305,80.362137 48.618324,79.361320 47.250587,79.402740 
	C46.452526,79.426918 45.458031,81.488586 45.020802,82.790977 
	C44.446754,84.500885 44.334618,86.365852 43.977146,88.561363 
	C43.382397,86.960747 42.057522,84.777847 42.478493,83.010872 
	C43.032536,80.685333 44.579163,77.472832 46.406307,76.900749 
	C48.116924,76.365158 51.332653,78.259064 52.866840,79.988098 
	C57.281582,84.963509 57.927505,91.121483 56.274319,97.353607 
	C55.845577,98.969856 53.994080,100.937912 52.459957,101.293282 
	C51.302143,101.561478 49.608536,99.516640 48.158821,98.242325 
z"/>
<path fill="#525252" opacity="1.000000" stroke="none" 
	d="
M54.079330,72.944771 
	C54.150055,72.872208 53.970913,73.168579 53.918385,73.164871 
	C53.865856,73.161171 54.008606,73.017334 54.079330,72.944771 
z"/>
<path fill="#47704C" opacity="1.000000" stroke="none" 
	d="
M30.104355,110.055862 
	C30.844988,112.608757 31.403828,114.947716 31.962667,117.286682 
	C31.178963,117.478569 30.395256,117.670456 29.611551,117.862343 
	C29.116325,115.485680 28.575373,113.116005 28.209129,110.719620 
	C28.178474,110.519035 29.323666,110.138748 30.104355,110.055862 
z"/>
<path fill="#4B4B4B" opacity="1.000000" stroke="none" 
	d="
M38.991074,120.988029 
	C38.984341,120.980255 38.956470,121.074898 38.984947,121.040054 
	C39.013428,121.005203 38.997803,120.995804 38.991074,120.988029 
z"/>
<path fill="#2E2E2E" opacity="1.000000" stroke="none" 
	d="
M100.386932,411.136047 
	C99.947945,410.366425 99.714371,409.861877 99.321571,409.128601 
	C98.970314,408.369873 98.778282,407.839844 98.440590,407.067505 
	C97.864380,404.785248 97.433823,402.745300 97.002350,400.308105 
	C99.626144,405.715027 102.250847,411.519165 104.909042,417.691406 
	C104.942528,418.059448 104.465874,418.057831 104.227936,418.043762 
	C102.857445,415.820190 101.724899,413.610626 100.386932,411.136047 
z"/>
<path fill="#2E2E2E" opacity="1.000000" stroke="none" 
	d="
M32.028255,212.550171 
	C31.945049,206.589355 31.821392,200.159622 31.834078,193.333435 
	C31.976217,199.318420 31.982012,205.699844 32.028255,212.550171 
z"/>
<path fill="#2E2E2E" opacity="1.000000" stroke="none" 
	d="
M153.450439,440.737213 
	C148.802383,440.718536 143.800186,440.522675 138.413177,440.187012 
	C143.051010,440.218140 148.073654,440.389069 153.450439,440.737213 
z"/>
<path fill="#2E2E2E" opacity="1.000000" stroke="none" 
	d="
M32.212837,192.156677 
	C32.437248,189.940826 32.903755,187.394119 33.577225,184.582184 
	C33.341106,186.819901 32.898022,189.322876 32.212837,192.156677 
z"/>
<path fill="#2E2E2E" opacity="1.000000" stroke="none" 
	d="
M137.134415,439.799286 
	C135.152344,439.506287 132.846741,438.982422 130.252319,438.215332 
	C132.245941,438.504211 134.528412,439.036316 137.134415,439.799286 
z"/>
<path fill="#3B3C3C" opacity="1.000000" stroke="none" 
	d="
M191.038849,150.494629 
	C191.135498,152.456085 191.216858,154.854538 191.174652,157.598694 
	C191.041901,155.606796 191.032745,153.269196 191.038849,150.494629 
z"/>
<path fill="#2E2E2E" opacity="1.000000" stroke="none" 
	d="
M126.659760,437.754211 
	C126.202438,437.319275 126.117386,436.936462 126.024887,436.258820 
	C127.221191,436.472137 128.424942,436.980286 129.836960,437.746429 
	C129.040833,437.938385 128.036423,437.872345 126.659760,437.754211 
z"/>
<path fill="#3B3C3C" opacity="1.000000" stroke="none" 
	d="
M130.694763,249.274628 
	C130.453476,249.665665 129.978210,250.183807 129.279449,250.847656 
	C129.524231,250.462845 129.992523,249.932297 130.694763,249.274628 
z"/>
<path fill="#3B3C3C" opacity="1.000000" stroke="none" 
	d="
M179.793640,181.035278 
	C179.683899,181.347351 179.381424,181.921585 178.889069,182.763458 
	C178.999771,182.453201 179.300339,181.875320 179.793640,181.035278 
z"/>
<path fill="#3B3C3C" opacity="1.000000" stroke="none" 
	d="
M184.919922,175.520050 
	C184.694901,175.910919 184.486588,175.919159 183.963318,175.935898 
	C183.939026,175.338745 184.229691,174.733093 184.732452,173.862274 
	C184.941910,174.110550 184.939270,174.624008 184.919922,175.520050 
z"/>
<path fill="#3B3C3C" opacity="1.000000" stroke="none" 
	d="
M189.763748,162.855927 
	C189.740189,163.205307 189.518402,163.827393 189.153351,164.745285 
	C189.195236,164.403610 189.380386,163.766129 189.763748,162.855927 
z"/>
<path fill="#2E2E2E" opacity="1.000000" stroke="none" 
	d="
M124.244102,434.762878 
	C124.044670,434.854462 123.548302,434.686646 122.761665,434.248535 
	C122.963318,434.153320 123.455246,434.328400 124.244102,434.762878 
z"/>
<path fill="#2E2E2E" opacity="1.000000" stroke="none" 
	d="
M125.854996,435.723145 
	C125.648087,435.823120 125.261734,435.650696 124.671753,435.226990 
	C124.870590,435.134064 125.273071,435.292389 125.854996,435.723145 
z"/>
<path fill="#3B3C3C" opacity="1.000000" stroke="none" 
	d="
M186.128174,172.140900 
	C186.114456,172.297256 185.795685,172.577194 185.224548,173.055298 
	C185.255829,172.923782 185.539474,172.594131 186.128174,172.140900 
z"/>
<path fill="#2E2E2E" opacity="1.000000" stroke="none" 
	d="
M73.012436,74.991302 
	C70.571831,71.476143 70.753052,67.348358 72.769302,62.828239 
	C73.011833,66.492210 73.013702,70.486435 73.012436,74.991302 
z"/>
<path fill="#3C3C3C" opacity="1.000000" stroke="none" 
	d="
M114.296204,71.802612 
	C114.187996,72.036728 113.941414,72.036942 113.324730,72.029503 
	C113.151352,71.795975 113.358261,71.579857 113.744904,71.228104 
	C113.995567,71.244713 114.076698,71.406715 114.296204,71.802612 
z"/>
</svg>