<svg version="1.1" id="Layer_1" xmlns="http://www.w3.org/2000/svg" xmlns:xlink="http://www.w3.org/1999/xlink" x="0px" y="0px"
	 width="100%" viewBox="0 0 222 460" enable-background="new 0 0 222 460" xml:space="preserve">
<path fill="#47704C" opacity="1.000000" stroke="none" 
	d="
M223.000000,165.000000 
	C223.000000,264.000000 223.000000,362.500000 223.000000,461.000000 
	C149.000000,461.000000 75.000000,461.000000 1.000000,461.000000 
	C1.000000,307.666656 1.000000,154.333328 1.000000,1.000000 
	C75.000000,1.000000 149.000000,1.000000 223.000000,1.000000 
	C223.000000,55.500000 223.000000,110.000000 223.000000,165.000000 
M189.225739,123.391586 
	C189.475220,123.687859 189.724716,123.984123 189.960419,124.586128 
	C189.960419,124.586128 189.976852,124.891716 190.172638,125.518692 
	C190.450836,125.855492 190.729034,126.192299 191.559555,126.913284 
	C198.339630,131.395920 205.900146,126.950638 208.658905,120.545601 
	C211.205658,114.632820 211.303513,108.530647 209.326965,102.591225 
	C207.160751,96.081886 198.938812,94.898048 194.190826,100.269844 
	C192.809677,101.832436 192.060699,103.953796 190.643509,106.133766 
	C190.386887,106.349152 190.197693,106.612885 190.012848,107.337158 
	C190.012848,107.337158 189.980804,107.752914 189.444473,108.352562 
	C189.300735,113.054474 189.156998,117.756378 188.988647,122.656227 
	C188.988647,122.656227 188.995377,122.855568 189.225739,123.391586 
M93.993660,104.013222 
	C93.993660,104.013222 94.042313,103.980865 93.402649,103.428925 
	C86.843918,103.619614 80.285179,103.810303 72.984390,104.190514 
	C66.988426,106.434174 60.992455,108.677841 54.313900,111.089996 
	C46.375805,115.790146 39.999683,121.837418 36.712158,131.495438 
	C34.823929,135.900223 32.935699,140.304993 30.594780,145.398727 
	C28.737267,152.482086 29.168182,159.493866 31.112999,166.498718 
	C33.869064,176.425568 39.992645,184.256180 46.917950,191.470200 
	C54.833099,199.715363 63.207188,207.519455 71.140106,215.748276 
	C74.921585,219.670792 78.143532,224.132721 81.892555,228.688217 
	C82.084900,228.906372 82.289062,229.112839 82.816750,229.947540 
	C85.924927,238.959930 89.033104,247.972321 92.088478,257.877106 
	C92.059006,263.261169 92.029526,268.645203 92.032028,274.763062 
	C92.013626,275.497040 91.995216,276.231018 91.384445,277.336578 
	C90.675003,278.975677 90.017220,280.639465 89.247185,282.249603 
	C85.907509,289.232849 82.560242,296.212677 79.161705,303.167389 
	C77.863739,305.823517 76.421074,308.408966 75.013268,311.006836 
	C75.013268,311.006836 75.027321,311.040222 74.411690,311.222382 
	C73.593468,312.143219 72.775238,313.064056 71.419510,314.372650 
	C67.529854,318.196045 63.507385,321.894806 59.778294,325.868866 
	C52.082672,334.070038 44.543472,342.417938 36.413815,351.159332 
	C34.567371,354.116425 32.720924,357.073517 30.542707,360.573608 
	C28.354918,367.691040 26.167128,374.808472 23.425446,382.465607 
	C22.962736,384.352448 22.130209,386.232880 22.097509,388.127136 
	C21.889763,400.161438 24.884651,411.162903 31.351711,421.566315 
	C44.188213,442.216156 68.713829,453.656250 92.439888,448.772980 
	C108.947105,445.375549 122.072990,436.741791 131.233414,421.450745 
	C139.070694,409.679596 142.345047,396.244781 144.931000,382.665192 
	C150.312958,354.402863 157.748993,326.905762 173.504044,301.631989 
	C176.946198,295.261932 180.728165,289.048645 183.754501,282.486816 
	C188.883255,271.366486 193.933563,260.176849 198.261444,248.730728 
	C201.743805,239.520798 205.307190,230.122452 204.658066,219.649963 
	C205.045273,218.477539 205.432480,217.305130 205.910065,215.414627 
	C205.948547,214.692001 205.987015,213.969376 206.581070,212.567734 
	C206.051605,202.562668 205.522125,192.557587 204.994888,182.294815 
	C204.994888,182.294815 204.963501,182.039017 204.951874,181.288269 
	C204.650925,180.119919 204.349960,178.951569 203.828705,177.093826 
	C201.124039,166.943436 196.151459,157.782227 189.262283,150.131790 
	C184.049347,144.342773 177.131088,140.089355 170.912186,135.108841 
	C170.912186,135.108841 170.856186,135.060623 170.641037,134.430420 
	C163.637131,126.083855 153.496918,123.189507 143.406235,118.781219 
	C138.265717,116.536186 133.273758,113.815331 127.951126,112.153641 
	C119.181427,109.415810 110.197845,107.363091 100.630028,104.533043 
	C98.415527,104.340439 96.201035,104.147835 93.993660,104.013222 
M73.977036,66.011429 
	C73.977036,66.011429 73.999641,66.058014 74.438766,65.425835 
	C77.310562,56.503281 77.544853,47.527370 75.008591,38.360619 
	C75.008591,38.360619 75.008469,38.224030 74.893486,37.572750 
	C74.593582,37.002987 74.293678,36.433224 73.873383,35.136509 
	C71.564789,30.769711 69.256187,26.402912 66.997025,22.022745 
	C66.997025,22.022745 66.945709,22.048332 66.758072,21.379257 
	C58.691231,6.900733 41.735996,4.720872 29.458172,17.205149 
	C23.721645,24.410597 22.251232,33.231342 20.802959,41.858978 
	C20.155153,45.718079 21.613401,49.930706 22.133039,54.644081 
	C22.123705,55.084862 22.114370,55.525642 21.886642,56.574680 
	C21.775154,63.907333 25.380741,69.934410 29.027891,75.809166 
	C35.469822,86.185692 46.731609,92.665733 59.593029,86.595253 
	C62.841297,83.155342 66.089569,79.715424 69.630844,75.877884 
	C69.806252,75.598991 69.963463,75.310188 70.498245,74.517189 
	C71.325005,73.036697 72.151764,71.556206 73.167694,69.511833 
	C73.238495,69.326645 73.309288,69.141464 73.614365,68.728722 
	C73.762810,68.568153 73.892563,68.393677 74.042007,67.463249 
	C74.034515,66.969444 74.027023,66.475632 73.977036,66.011429 
M190.652969,74.599030 
	C190.413513,74.414291 190.160782,74.249939 189.442169,73.596558 
	C183.436172,67.418648 175.851044,68.120361 170.903473,75.061630 
	C165.550888,82.571167 164.094223,90.709084 166.069839,99.617676 
	C167.686203,106.906242 173.008423,110.201607 180.196838,107.977333 
	C188.460953,105.420204 191.235733,98.586998 192.995499,90.180695 
	C192.650223,85.783951 192.304962,81.387207 191.838684,76.414909 
	C191.560440,75.904816 191.282181,75.394730 190.652969,74.599030 
M139.431473,52.437111 
	C132.046066,65.334846 133.433319,81.791428 143.292999,91.403534 
	C147.325638,93.588478 151.507629,94.471947 155.523636,91.676941 
	C162.660660,86.709801 165.898819,79.439377 165.229614,71.060074 
	C164.547241,62.515793 163.148499,53.898930 156.704529,46.340408 
	C149.310287,42.811138 144.046524,44.563908 139.431473,52.437111 
M123.769119,47.121601 
	C120.250076,37.929012 114.536545,31.452578 103.085541,31.037148 
	C102.252403,31.021292 101.419266,31.005438 100.225342,31.199024 
	C99.891586,31.439768 99.557823,31.680513 98.587105,32.217545 
	C91.058640,36.170757 88.278236,43.223259 86.803429,50.900112 
	C84.568123,62.535576 87.842087,77.956909 98.787598,84.574409 
	C105.243477,88.477554 111.857033,87.683205 117.678246,81.594040 
	C119.780281,78.784798 121.882317,75.975548 124.132126,72.358215 
	C126.223244,64.150208 127.733421,55.945618 123.769119,47.121601 
z"/>
<path fill="#3B3C3C" opacity="1.000000" stroke="none" 
	d="
M30.874487,360.030609 
	C32.720924,357.073517 34.567371,354.116425 36.838081,351.088562 
	C38.486031,350.489899 40.018341,350.266022 40.884773,349.386292 
	C48.117977,342.042236 55.342854,334.682831 62.330746,327.107147 
	C66.142403,322.974854 69.489738,318.414215 73.251862,313.824463 
	C73.980591,312.748138 74.503960,311.894196 75.027321,311.040222 
	C75.027321,311.040222 75.013268,311.006836 75.327072,310.869385 
	C83.618607,302.727448 88.523994,292.948944 91.823616,282.302673 
	C92.331200,280.664948 91.948029,278.751129 91.976814,276.964996 
	C91.995216,276.231018 92.013626,275.497040 92.261581,274.112030 
	C94.717094,267.919159 95.067650,262.417145 92.141289,256.984711 
	C89.033104,247.972321 85.924927,238.959930 82.995453,229.464874 
	C86.726906,227.327454 86.577606,224.994385 84.577103,222.129410 
	C82.964722,219.820267 81.565094,217.362579 80.379028,215.094818 
	C89.927467,224.312241 96.286972,234.929276 97.770561,247.768921 
	C96.104698,245.370834 94.688126,243.196945 92.976135,240.569702 
	C90.505409,246.744736 92.711952,252.839508 97.262314,254.425934 
	C97.577286,256.610626 97.856567,258.402710 97.966759,260.205170 
	C98.307274,265.775208 98.583321,271.349182 98.895920,277.331177 
	C98.946053,278.557922 98.984673,279.375092 98.932663,280.558350 
	C96.632637,292.646606 91.396408,303.303101 83.997566,312.189606 
	C69.988525,329.015442 54.786106,344.847656 39.746391,361.185852 
	C37.367947,363.787415 34.702358,366.008240 33.383205,368.853363 
	C27.230196,382.124054 27.500299,395.737152 32.781345,409.161652 
	C36.955986,419.773590 43.408241,428.719147 53.956642,434.080017 
	C53.985126,434.084778 54.070423,433.934753 54.080902,433.739807 
	C54.091377,433.544861 54.106850,433.154755 54.461288,433.147919 
	C57.214634,434.448090 59.613544,435.755066 62.168613,437.228058 
	C62.536945,437.613220 62.760677,437.819855 62.990276,438.011963 
	C62.984573,438.009949 62.972248,438.018646 63.173897,438.302429 
	C69.157715,443.181732 76.136284,443.032654 82.837448,442.869263 
	C99.262047,442.468719 112.626663,435.854858 122.019608,421.857605 
	C122.014137,421.404541 121.973434,421.105560 121.934143,420.454346 
	C124.276733,415.725647 126.588066,411.353027 129.151855,406.963440 
	C129.572495,406.934937 129.740707,406.923401 130.126740,406.799133 
	C131.813629,401.895813 133.282700,397.105194 134.763672,392.321716 
	C134.775604,392.328827 134.747452,392.311859 134.952698,391.975800 
	C137.057281,384.827515 139.142410,378.059021 140.761017,371.180725 
	C141.376190,368.566559 140.918625,365.699982 140.999008,362.702179 
	C141.201569,361.977539 141.355103,361.499146 141.743332,360.744385 
	C141.980682,358.358826 141.983337,356.249695 141.999359,353.742798 
	C143.302170,349.561737 144.591599,345.778412 146.144897,341.765869 
	C147.040085,340.571808 147.786423,339.662720 148.285248,338.633667 
	C154.588791,325.629639 160.903381,312.630585 167.122086,299.585907 
	C175.349762,282.327087 183.620438,265.086029 191.534424,247.683517 
	C192.656631,245.215881 191.871933,241.881058 191.967972,238.624802 
	C191.983902,237.872055 192.001694,237.442093 192.200806,236.847778 
	C192.611450,236.450195 192.824356,236.202835 193.017059,235.980042 
	C193.013336,236.018738 192.935638,236.022064 193.188766,235.770386 
	C194.387222,231.968597 195.332550,228.418488 196.518555,224.631851 
	C197.818756,215.481445 198.977371,206.577087 199.837570,197.644028 
	C199.976593,196.200439 198.788727,194.629074 198.168732,192.665573 
	C198.107925,190.412323 198.092590,188.610260 198.182236,186.480759 
	C197.187729,182.103943 196.088257,178.054581 194.944244,173.625854 
	C193.381958,169.682220 192.008057,166.044159 190.244125,162.606186 
	C189.809799,161.759644 188.104874,161.565018 186.697418,160.892578 
	C169.289597,139.460449 146.294449,127.409203 120.761078,118.804764 
	C119.998383,118.435745 119.472916,118.224892 118.974136,117.999603 
	C119.000809,117.985161 119.008957,118.045273 118.821976,117.878906 
	C117.662720,117.486137 116.690460,117.259727 115.529968,117.009865 
	C115.341751,116.986412 114.969994,116.910873 114.788315,116.746536 
	C113.634544,116.399696 112.662453,116.217201 111.507263,116.019821 
	C111.324181,116.004944 110.962120,115.942665 110.764854,115.897018 
	C110.038155,115.891518 109.508713,115.931664 108.722702,115.866455 
	C107.987923,115.480042 107.509720,115.198997 107.175858,114.763718 
	C107.514709,114.404251 107.713585,114.203323 107.991531,113.929504 
	C107.970741,113.567345 107.875214,113.282394 107.537109,113.042572 
	C106.974510,113.141266 106.653061,113.183998 105.974396,113.036766 
	C92.614891,108.455322 79.474121,109.073959 66.408981,112.269508 
	C64.365723,112.769264 62.849339,115.423141 60.840363,117.304665 
	C57.723682,119.823555 54.855957,122.118721 51.824242,124.210892 
	C50.075207,124.616386 47.607838,124.783676 47.047394,125.904495 
	C43.224781,133.549240 38.708111,141.118774 36.654232,149.276276 
	C35.379200,154.340378 38.034142,160.393951 38.997711,166.370087 
	C40.177994,169.319748 40.833126,172.244629 42.477978,174.421768 
	C47.474636,181.035385 52.853844,187.359970 57.981766,194.141418 
	C57.572140,199.532425 62.007229,204.418076 67.892273,204.369919 
	C64.656113,200.647079 61.843033,197.410950 59.209766,193.980438 
	C59.599911,193.501999 59.810238,193.217957 60.287849,193.133987 
	C65.148911,197.883469 69.869835,202.313950 74.282890,207.032394 
	C76.490746,209.393066 78.136818,212.279175 79.733086,215.019379 
	C75.633583,216.547913 77.233376,218.616302 78.531662,220.971664 
	C79.811264,223.293121 80.609505,225.879929 81.618935,228.350327 
	C78.143532,224.132721 74.921585,219.670792 71.140106,215.748276 
	C63.207188,207.519455 54.833099,199.715363 46.917950,191.470200 
	C39.992645,184.256180 33.869064,176.425568 31.112999,166.498718 
	C29.168182,159.493866 28.737267,152.482086 30.824596,145.542542 
	C31.054415,149.439606 31.054415,153.192841 31.054415,156.946091 
	C32.316189,151.898483 33.136173,146.869476 34.223320,141.898880 
	C35.029869,138.211243 36.183361,134.599472 37.182312,130.953918 
	C39.999683,121.837418 46.375805,115.790146 54.653030,111.272705 
	C54.990475,111.633087 54.988781,111.810760 54.972000,112.002396 
	C54.956909,112.016350 55.013165,112.014549 55.383121,111.952087 
	C68.229568,105.857178 81.544281,105.393997 95.409706,106.068565 
	C104.358017,108.201691 113.000717,109.944229 121.443283,112.380341 
	C129.087280,114.586029 136.512939,117.548409 144.301361,120.368477 
	C150.716324,124.069504 156.844498,127.615540 163.023071,131.071411 
	C165.578430,132.500687 168.241898,133.736710 170.856186,135.060623 
	C170.856186,135.060623 170.912186,135.108841 171.090042,135.415924 
	C172.523743,137.025558 173.712479,138.401596 175.045868,139.619232 
	C187.542847,151.031387 198.709122,163.295822 202.275696,180.661545 
	C202.585693,182.170959 203.866226,183.481049 204.757751,185.245850 
	C204.870789,186.094406 204.922028,186.580826 204.825821,187.445526 
	C205.071182,194.793457 205.464005,201.763123 205.875580,209.183716 
	C205.938034,210.838684 205.981766,212.042709 206.025482,213.246750 
	C205.987015,213.969376 205.948547,214.692001 205.647339,215.982574 
	C204.932953,217.656967 204.481293,218.763397 204.029633,219.869843 
	C205.307190,230.122452 201.743805,239.520798 198.261444,248.730728 
	C193.933563,260.176849 188.883255,271.366486 183.754501,282.486816 
	C180.728165,289.048645 176.946198,295.261932 173.100372,301.725708 
	C171.714737,302.400482 170.273163,302.740295 169.821960,303.599945 
	C165.334427,312.149445 160.714020,320.649292 156.702927,329.424500 
	C148.725693,346.876556 146.743286,365.989838 141.908722,384.318359 
	C138.949783,395.536102 134.677048,406.404877 131.108780,417.467316 
	C130.656326,418.870026 130.899490,420.497101 130.820374,422.020233 
	C122.072990,436.741791 108.947105,445.375549 92.439888,448.772980 
	C68.713829,453.656250 44.188213,442.216156 31.351711,421.566315 
	C24.884651,411.162903 21.889763,400.161438 22.097509,388.127136 
	C22.130209,386.232880 22.962736,384.352448 23.755726,382.328613 
	C24.205887,382.298096 24.316538,382.472900 24.448414,382.490723 
	C24.565788,382.506592 24.789289,382.375366 24.825382,382.263611 
	C27.222940,374.842377 29.606213,367.416565 32.010254,359.983521 
	C32.029778,359.975922 32.008137,360.008942 31.724743,360.015320 
	C31.252398,360.024658 31.063444,360.027649 30.874487,360.030609 
M32.466354,163.553452 
	C32.466354,163.553452 32.449047,163.499969 32.466354,163.553452 
M57.524090,117.484627 
	C57.524090,117.484627 57.482864,117.494286 57.524090,117.484627 
z"/>
<path fill="#3B3B3B" opacity="1.000000" stroke="none" 
	d="
M22.105036,55.966423 
	C22.114370,55.525642 22.123705,55.084862 22.242805,53.924248 
	C22.932402,40.453159 24.060270,27.849293 32.381527,16.958984 
	C46.605961,8.426432 51.096539,8.843453 63.296711,19.563082 
	C64.393883,20.527111 65.723854,21.226204 66.945709,22.048332 
	C66.945709,22.048332 66.997025,22.022745 67.035263,22.400536 
	C67.696495,24.670105 68.151283,26.638245 68.969833,28.441235 
	C74.191597,39.942974 75.031181,51.827591 72.134766,64.020233 
	C71.254921,67.724022 70.040352,71.348312 68.987282,74.998444 
	C68.995476,74.987877 69.007492,74.964737 68.994225,75.091537 
	C68.968674,75.471909 68.972862,75.725296 69.079498,76.052856 
	C69.165489,76.127213 69.337837,76.275513 69.337837,76.275513 
	C66.089569,79.715424 62.841297,83.155342 59.069107,86.546875 
	C57.285881,86.365303 55.964958,85.917557 54.777332,86.150215 
	C47.338062,87.607590 41.242657,85.292183 35.697403,80.303291 
	C30.156708,75.318497 27.287962,68.977501 25.035561,62.137505 
	C24.328888,59.991508 23.096689,58.018574 22.105036,55.966423 
M66.229240,63.160564 
	C66.482613,57.370415 66.832527,51.582500 66.966965,45.789593 
	C67.173927,36.871735 64.042198,29.411707 57.521072,23.142059 
	C50.285736,16.185749 43.829578,15.652672 35.428802,22.288427 
	C33.828529,24.125748 31.776693,25.732347 30.700985,27.837688 
	C23.512316,41.907127 26.443039,64.743881 37.271805,76.236420 
	C39.628799,78.737892 43.695675,79.628227 47.830109,81.202003 
	C49.543056,81.148056 51.256001,81.094116 53.560360,81.136169 
	C60.802383,79.833748 67.736511,70.368210 66.229240,63.160564 
z"/>
<path fill="#3C3C3C" opacity="1.000000" stroke="none" 
	d="
M117.181755,81.982407 
	C111.857033,87.683205 105.243477,88.477554 98.787598,84.574409 
	C87.842087,77.956909 84.568123,62.535576 86.803429,50.900112 
	C88.278236,43.223259 91.058640,36.170757 99.112793,32.287354 
	C100.711571,32.666161 101.828667,33.345806 102.850670,33.224461 
	C109.883812,32.389381 114.915131,35.899750 118.293396,41.295647 
	C125.663528,53.067501 124.452637,65.188522 118.540573,77.233055 
	C117.826424,78.687965 117.622269,80.393188 117.181755,81.982407 
M104.430626,79.278763 
	C104.917519,79.504211 105.404411,79.729668 106.665344,79.897934 
	C109.649040,78.042595 113.486313,76.829842 115.457077,74.211952 
	C121.476143,66.216438 120.168877,48.795601 113.345924,41.467400 
	C112.249413,40.289688 109.818153,40.354694 107.319344,39.822567 
	C105.046204,40.413754 102.635292,40.711014 100.544418,41.691048 
	C98.931885,42.446869 97.721138,44.059856 96.400383,45.141808 
	C96.400383,45.141808 96.287262,44.909634 96.287262,44.909634 
	C96.287262,44.909634 96.159325,45.209316 96.112404,45.148048 
	C96.112404,45.148048 96.096275,45.072582 95.583107,45.567036 
	C89.280502,54.927910 93.995804,71.518936 99.295654,76.571777 
	C100.528610,77.747269 102.418625,78.233597 104.000687,79.005577 
	C104.000687,79.005577 103.970779,78.994354 104.430626,79.278763 
z"/>
<path fill="#3E3F3F" opacity="1.000000" stroke="none" 
	d="
M192.896332,91.000748 
	C191.235733,98.586998 188.460953,105.420204 180.196838,107.977333 
	C173.008423,110.201607 167.686203,106.906242 166.069839,99.617676 
	C164.094223,90.709084 165.550888,82.571167 170.903473,75.061630 
	C175.851044,68.120361 183.436172,67.418648 189.619293,74.177917 
	C190.829727,80.173103 191.863022,85.586929 192.896332,91.000748 
M182.142853,96.159737 
	C182.794846,91.529320 183.573608,86.910591 184.002716,82.259605 
	C184.100418,81.200684 183.145706,79.242950 182.396774,79.093315 
	C181.239334,78.862053 179.070465,79.483101 178.677795,80.351730 
	C176.829468,84.440468 175.440475,88.736855 173.457077,93.447395 
	C171.243042,97.139114 172.501343,100.172409 176.136185,101.335068 
	C179.208923,102.317932 182.008972,100.927414 182.142853,96.159737 
z"/>
<path fill="#3C3D3D" opacity="1.000000" stroke="none" 
	d="
M157.242020,46.941753 
	C163.148499,53.898930 164.547241,62.515793 165.229614,71.060074 
	C165.898819,79.439377 162.660660,86.709801 155.523636,91.676941 
	C151.507629,94.471947 147.325638,93.588478 143.191284,91.128258 
	C142.879486,89.651802 143.029968,88.204544 142.403946,87.287224 
	C135.590622,77.303650 135.243378,66.873215 140.247833,56.063232 
	C142.288879,55.313206 144.095932,54.634480 145.756271,53.696121 
	C149.622406,51.511131 153.417908,49.201115 157.242020,46.941753 
M158.228470,69.396332 
	C157.848785,67.600121 157.469116,65.803917 156.798660,63.340263 
	C156.517380,62.561459 156.411530,61.643257 155.923340,61.028847 
	C154.150467,58.797558 152.249512,56.668049 150.396866,54.500153 
	C148.484711,56.783726 145.374832,58.847908 144.908035,61.396236 
	C143.915283,66.815872 144.296524,72.487175 143.760696,77.928314 
	C141.191742,81.236664 144.244766,83.429665 146.035629,84.579994 
	C147.774216,85.696747 151.485336,85.996490 152.941483,84.866096 
	C156.921783,81.776176 159.591583,77.521324 158.110062,71.308258 
	C158.073318,70.886749 158.036575,70.465233 158.228470,69.396332 
z"/>
<path fill="#3C3D3D" opacity="1.000000" stroke="none" 
	d="
M189.980804,107.752914 
	C189.980804,107.752914 190.012848,107.337158 190.206100,106.951187 
	C190.604965,106.314880 190.812500,106.066154 191.021942,105.819031 
	C192.060699,103.953796 192.809677,101.832436 194.190826,100.269844 
	C198.938812,94.898048 207.160751,96.081886 209.326965,102.591225 
	C211.303513,108.530647 211.205658,114.632820 208.658905,120.545601 
	C205.900146,126.950638 198.339630,131.395920 191.131775,126.435165 
	C190.461594,125.601944 190.219223,125.246834 189.976852,124.891716 
	C189.976852,124.891716 189.960419,124.586128 190.000610,124.097115 
	C190.061005,123.384331 190.081207,123.160561 190.203186,122.601364 
	C190.175537,118.152153 190.046158,114.038345 189.931763,109.563232 
	C189.958115,108.718925 189.969467,108.235916 189.980804,107.752914 
M203.675064,112.158539 
	C203.681580,111.801552 203.688095,111.444565 203.749893,110.292480 
	C203.173172,108.530037 202.673767,106.732277 201.908188,105.056107 
	C201.825516,104.875076 200.053482,105.168121 199.314362,105.635490 
	C195.964874,107.753471 193.752716,115.735672 195.588913,119.076096 
	C196.619247,120.950493 197.841812,121.782410 199.166306,118.372673 
	C200.461060,116.524445 201.755814,114.676216 203.222946,112.870018 
	C203.406433,112.884560 203.563766,112.826416 203.675064,112.158539 
z"/>
<path fill="#464646" opacity="1.000000" stroke="none" 
	d="
M131.026886,421.735474 
	C130.899490,420.497101 130.656326,418.870026 131.108780,417.467316 
	C134.677048,406.404877 138.949783,395.536102 141.908722,384.318359 
	C146.743286,365.989838 148.725693,346.876556 156.702927,329.424500 
	C160.714020,320.649292 165.334427,312.149445 169.821960,303.599945 
	C170.273163,302.740295 171.714737,302.400482 172.858932,301.967041 
	C157.748993,326.905762 150.312958,354.402863 144.931000,382.665192 
	C142.345047,396.244781 139.070694,409.679596 131.026886,421.735474 
z"/>
<path fill="#464646" opacity="1.000000" stroke="none" 
	d="
M204.695938,184.883743 
	C203.866226,183.481049 202.585693,182.170959 202.275696,180.661545 
	C198.709122,163.295822 187.542847,151.031387 175.045868,139.619232 
	C173.712479,138.401596 172.523743,137.025558 171.119827,135.437775 
	C177.131088,140.089355 184.049347,144.342773 189.262283,150.131790 
	C196.151459,157.782227 201.124039,166.943436 203.809235,177.695175 
	C204.181000,179.544022 204.572250,180.791519 204.963501,182.039017 
	C204.963501,182.039017 204.994888,182.294815 204.919800,182.809387 
	C204.795105,183.843872 204.745529,184.363815 204.695938,184.883743 
z"/>
<path fill="#4C4C4C" opacity="1.000000" stroke="none" 
	d="
M117.430000,81.788223 
	C117.622269,80.393188 117.826424,78.687965 118.540573,77.233055 
	C124.452637,65.188522 125.663528,53.067501 118.293396,41.295647 
	C114.915131,35.899750 109.883812,32.389381 102.850670,33.224461 
	C101.828667,33.345806 100.711571,32.666161 99.431267,32.139214 
	C99.557823,31.680513 99.891586,31.439768 100.695358,31.178013 
	C102.077065,31.127634 102.988747,31.098269 103.900429,31.068903 
	C114.536545,31.452578 120.250076,37.929012 123.888733,47.894917 
	C123.881355,55.381084 123.729141,62.093632 123.647339,68.807037 
	C123.629662,70.258545 123.865364,71.713135 123.984352,73.166306 
	C121.882317,75.975548 119.780281,78.784798 117.430000,81.788223 
z"/>
<path fill="#424242" opacity="1.000000" stroke="none" 
	d="
M73.046486,314.046783 
	C69.489738,318.414215 66.142403,322.974854 62.330746,327.107147 
	C55.342854,334.682831 48.117977,342.042236 40.884773,349.386292 
	C40.018341,350.266022 38.486031,350.489899 37.101147,350.861633 
	C44.543472,342.417938 52.082672,334.070038 59.778294,325.868866 
	C63.507385,321.894806 67.529854,318.196045 71.960793,314.193848 
	C72.683548,314.025635 72.865021,314.036194 73.046486,314.046783 
z"/>
<path fill="#444444" opacity="1.000000" stroke="none" 
	d="
M21.995838,56.270554 
	C23.096689,58.018574 24.328888,59.991508 25.035561,62.137505 
	C27.287962,68.977501 30.156708,75.318497 35.697403,80.303291 
	C41.242657,85.292183 47.338062,87.607590 54.777332,86.150215 
	C55.964958,85.917557 57.285881,86.365303 58.768311,86.687691 
	C46.731609,92.665733 35.469822,86.185692 29.027891,75.809166 
	C25.380741,69.934410 21.775154,63.907333 21.995838,56.270554 
z"/>
<path fill="#363636" opacity="1.000000" stroke="none" 
	d="
M156.973267,46.641083 
	C153.417908,49.201115 149.622406,51.511131 145.756271,53.696121 
	C144.095932,54.634480 142.288879,55.313206 140.258408,55.654697 
	C139.947708,54.110992 139.927094,53.022480 139.906464,51.933971 
	C144.046524,44.563908 149.310287,42.811138 156.973267,46.641083 
z"/>
<path fill="#4C4C4C" opacity="1.000000" stroke="none" 
	d="
M68.979095,75.009018 
	C70.040352,71.348312 71.254921,67.724022 72.134766,64.020233 
	C75.031181,51.827591 74.191597,39.942974 68.969833,28.441235 
	C68.151283,26.638245 67.696495,24.670105 67.010551,22.407221 
	C69.256187,26.402912 71.564789,30.769711 74.010895,35.812584 
	C74.435097,37.067116 74.721779,37.645573 75.008469,38.224030 
	C75.008469,38.224030 75.008591,38.360619 74.958427,38.934258 
	C74.605392,48.357937 74.302513,57.207977 73.999641,66.058014 
	C73.999641,66.058014 73.977036,66.011429 73.925705,66.212044 
	C73.917465,67.010208 73.960548,67.607750 74.003624,68.205299 
	C73.892563,68.393677 73.762810,68.568153 73.418930,68.972916 
	C73.093628,69.488998 73.011971,69.775192 72.978516,70.075706 
	C72.151764,71.556206 71.325005,73.036697 70.019310,74.760078 
	C69.353279,75.004990 69.166191,75.007004 68.979095,75.009018 
z"/>
<path fill="#4C4C4C" opacity="1.000000" stroke="none" 
	d="
M144.034866,120.177139 
	C136.512939,117.548409 129.087280,114.586029 121.443283,112.380341 
	C113.000717,109.944229 104.358017,108.201691 95.408447,105.841774 
	C95.014397,105.526489 95.013458,105.072495 95.459549,105.051872 
	C97.705238,105.028023 99.504829,105.024796 101.304420,105.021568 
	C110.197845,107.363091 119.181427,109.415810 127.951126,112.153641 
	C133.273758,113.815331 138.265717,116.536186 143.718262,119.215279 
	C144.031815,119.825272 144.033340,120.001205 144.034866,120.177139 
z"/>
<path fill="#4C4C4C" opacity="1.000000" stroke="none" 
	d="
M66.851891,21.713795 
	C65.723854,21.226204 64.393883,20.527111 63.296711,19.563082 
	C51.096539,8.843453 46.605961,8.426432 32.023216,16.882097 
	C30.871111,16.841574 30.394773,16.742258 29.918438,16.642944 
	C41.735996,4.720872 58.691231,6.900733 66.851891,21.713795 
z"/>
<path fill="#464646" opacity="1.000000" stroke="none" 
	d="
M139.668976,52.185539 
	C139.927094,53.022480 139.947708,54.110992 139.957764,55.608032 
	C135.243378,66.873215 135.590622,77.303650 142.403946,87.287224 
	C143.029968,88.204544 142.879486,89.651802 142.885071,90.916962 
	C133.433319,81.791428 132.046066,65.334846 139.668976,52.185539 
z"/>
<path fill="#464646" opacity="1.000000" stroke="none" 
	d="
M91.680634,277.150787 
	C91.948029,278.751129 92.331200,280.664948 91.823616,282.302673 
	C88.523994,292.948944 83.618607,302.727448 75.342606,310.879272 
	C76.421074,308.408966 77.863739,305.823517 79.161705,303.167389 
	C82.560242,296.212677 85.907509,289.232849 89.247185,282.249603 
	C90.017220,280.639465 90.675003,278.975677 91.680634,277.150787 
z"/>
<path fill="#444444" opacity="1.000000" stroke="none" 
	d="
M95.013458,105.072495 
	C95.013458,105.072495 95.014397,105.526489 95.015656,105.753281 
	C81.544281,105.393997 68.229568,105.857178 55.376595,111.945328 
	C55.000107,112.001015 54.987087,111.988441 54.987087,111.988441 
	C54.988781,111.810760 54.990475,111.633087 54.994324,111.188461 
	C60.992455,108.677841 66.988426,106.434174 73.843971,104.117722 
	C81.149803,104.023582 87.596062,104.002220 94.042313,103.980865 
	C94.042313,103.980865 93.993660,104.013222 94.156464,104.174606 
	C94.550659,104.581490 94.782059,104.826996 95.013458,105.072495 
z"/>
<path fill="#444444" opacity="1.000000" stroke="none" 
	d="
M29.688305,16.924046 
	C30.394773,16.742258 30.871111,16.841574 31.705755,17.017775 
	C24.060270,27.849293 22.932402,40.453159 22.234228,53.593658 
	C21.613401,49.930706 20.155153,45.718079 20.802959,41.858978 
	C22.251232,33.231342 23.721645,24.410597 29.688305,16.924046 
z"/>
<path fill="#464646" opacity="1.000000" stroke="none" 
	d="
M144.301361,120.368477 
	C144.033340,120.001205 144.031815,119.825272 144.030563,119.386299 
	C153.496918,123.189507 163.637131,126.083855 170.748611,134.745514 
	C168.241898,133.736710 165.578430,132.500687 163.023071,131.071411 
	C156.844498,127.615540 150.716324,124.069504 144.301361,120.368477 
z"/>
<path fill="#363636" opacity="1.000000" stroke="none" 
	d="
M81.755745,228.519272 
	C80.609505,225.879929 79.811264,223.293121 78.531662,220.971664 
	C77.233376,218.616302 75.633583,216.547913 79.739777,215.032120 
	C80.050377,214.953094 80.071075,214.970795 80.071075,214.970795 
	C81.565094,217.362579 82.964722,219.820267 84.577103,222.129410 
	C86.577606,224.994385 86.726906,227.327454 82.839600,229.144928 
	C82.289062,229.112839 82.084900,228.906372 81.755745,228.519272 
z"/>
<path fill="#4B4B4B" opacity="1.000000" stroke="none" 
	d="
M36.947235,131.224670 
	C36.183361,134.599472 35.029869,138.211243 34.223320,141.898880 
	C33.136173,146.869476 32.316189,151.898483 31.054415,156.946091 
	C31.054415,153.192841 31.054415,149.439606 31.050943,145.198059 
	C32.935699,140.304993 34.823929,135.900223 36.947235,131.224670 
z"/>
<path fill="#4B4B4B" opacity="1.000000" stroke="none" 
	d="
M30.708599,360.302124 
	C31.063444,360.027649 31.252398,360.024658 31.720543,360.010864 
	C31.999733,360.000000 31.990734,359.991119 31.990734,359.991119 
	C29.606213,367.416565 27.222940,374.842377 24.825382,382.263611 
	C24.789289,382.375366 24.565788,382.506592 24.448414,382.490723 
	C24.316538,382.472900 24.205887,382.298096 24.032671,382.058746 
	C26.167128,374.808472 28.354918,367.691040 30.708599,360.302124 
z"/>
<path fill="#4B4B4B" opacity="1.000000" stroke="none" 
	d="
M192.945908,90.590721 
	C191.863022,85.586929 190.829727,80.173103 189.845612,74.432625 
	C190.160782,74.249939 190.413513,74.414291 190.919556,75.018143 
	C191.443985,75.954994 191.701828,76.472733 191.959686,76.990463 
	C192.304962,81.387207 192.650223,85.783951 192.945908,90.590721 
z"/>
<path fill="#303030" opacity="1.000000" stroke="none" 
	d="
M74.219208,65.741928 
	C74.302513,57.207977 74.605392,48.357937 74.945923,39.001404 
	C77.544853,47.527370 77.310562,56.503281 74.219208,65.741928 
z"/>
<path fill="#464646" opacity="1.000000" stroke="none" 
	d="
M92.114883,257.430908 
	C95.067650,262.417145 94.717094,267.919159 92.245598,273.745117 
	C92.029526,268.645203 92.059006,263.261169 92.114883,257.430908 
z"/>
<path fill="#2C2C2C" opacity="1.000000" stroke="none" 
	d="
M204.757751,185.245850 
	C204.745529,184.363815 204.795105,183.843872 204.918671,182.938232 
	C205.522125,192.557587 206.051605,202.562668 206.303284,212.907242 
	C205.981766,212.042709 205.938034,210.838684 205.900787,208.742249 
	C205.595947,200.922333 205.284607,193.994797 204.973267,187.067261 
	C204.922028,186.580826 204.870789,186.094406 204.757751,185.245850 
z"/>
<path fill="#303030" opacity="1.000000" stroke="none" 
	d="
M124.058243,72.762260 
	C123.865364,71.713135 123.629662,70.258545 123.647339,68.807037 
	C123.729141,62.093632 123.881355,55.381084 123.998016,48.220070 
	C127.733421,55.945618 126.223244,64.150208 124.058243,72.762260 
z"/>
<path fill="#2C2C2C" opacity="1.000000" stroke="none" 
	d="
M93.722481,103.704895 
	C87.596062,104.002220 81.149803,104.023582 74.214996,104.022964 
	C80.285179,103.810303 86.843918,103.619614 93.722481,103.704895 
z"/>
<path fill="#484848" opacity="1.000000" stroke="none" 
	d="
M189.916763,109.924545 
	C190.046158,114.038345 190.175537,118.152153 189.927338,122.568092 
	C189.364960,122.865341 189.180176,122.860458 188.995377,122.855568 
	C188.995377,122.855568 188.988647,122.656227 189.025879,122.072861 
	C189.347656,117.634514 189.632202,113.779526 189.916763,109.924545 
z"/>
<path fill="#2C2C2C" opacity="1.000000" stroke="none" 
	d="
M189.931763,109.563232 
	C189.632202,113.779526 189.347656,117.634514 189.038177,121.973892 
	C189.156998,117.756378 189.300735,113.054474 189.712646,108.052734 
	C189.969467,108.235916 189.958115,108.718925 189.931763,109.563232 
z"/>
<path fill="#2C2C2C" opacity="1.000000" stroke="none" 
	d="
M204.343842,219.759903 
	C204.481293,218.763397 204.932953,217.656967 205.602142,216.341614 
	C205.432480,217.305130 205.045273,218.477539 204.343842,219.759903 
z"/>
<path fill="#464646" opacity="1.000000" stroke="none" 
	d="
M73.251862,313.824463 
	C72.865021,314.036194 72.683548,314.025635 72.229546,313.999939 
	C72.775238,313.064056 73.593468,312.143219 74.719505,311.131287 
	C74.503960,311.894196 73.980591,312.748138 73.251862,313.824463 
z"/>
<path fill="#2C2C2C" opacity="1.000000" stroke="none" 
	d="
M95.459549,105.051880 
	C94.782059,104.826996 94.550659,104.581490 94.152893,104.145615 
	C96.201035,104.147835 98.415527,104.340439 100.967224,104.777306 
	C99.504829,105.024796 97.705238,105.028023 95.459549,105.051880 
z"/>
<path fill="#2C2C2C" opacity="1.000000" stroke="none" 
	d="
M204.957672,181.663635 
	C204.572250,180.791519 204.181000,179.544022 203.919373,178.039871 
	C204.349960,178.951569 204.650925,180.119919 204.957672,181.663635 
z"/>
<path fill="#3C3C3C" opacity="1.000000" stroke="none" 
	d="
M103.492981,31.053024 
	C102.988747,31.098269 102.077065,31.127634 100.875755,31.073292 
	C101.419266,31.005438 102.252403,31.021292 103.492981,31.053024 
z"/>
<path fill="#3B3B3B" opacity="1.000000" stroke="none" 
	d="
M74.022812,67.834274 
	C73.960548,67.607750 73.917465,67.010208 73.946960,66.197243 
	C74.027023,66.475632 74.034515,66.969444 74.022812,67.834274 
z"/>
<path fill="#3E3F3F" opacity="1.000000" stroke="none" 
	d="
M191.899185,76.702682 
	C191.701828,76.472733 191.443985,75.954994 191.095032,75.160950 
	C191.282181,75.394730 191.560440,75.904816 191.899185,76.702682 
z"/>
<path fill="#303030" opacity="1.000000" stroke="none" 
	d="
M74.950974,37.898392 
	C74.721779,37.645573 74.435097,37.067116 74.071098,36.176056 
	C74.293678,36.433224 74.593582,37.002987 74.950974,37.898392 
z"/>
<path fill="#3B3B3B" opacity="1.000000" stroke="none" 
	d="
M73.073105,69.793770 
	C73.011971,69.775192 73.093628,69.488998 73.301788,69.086700 
	C73.309288,69.141464 73.238495,69.326645 73.073105,69.793770 
z"/>
<path fill="#3B3B3B" opacity="1.000000" stroke="none" 
	d="
M68.987289,74.998444 
	C69.166191,75.007004 69.353279,75.004990 69.821434,75.007217 
	C69.963463,75.310188 69.806252,75.598991 69.484344,76.076698 
	C69.337837,76.275513 69.165489,76.127213 69.080124,75.799538 
	C68.999001,75.302818 69.003242,75.133781 69.007492,74.964737 
	C69.007492,74.964737 68.995476,74.987877 68.987289,74.998444 
z"/>
<path fill="#2C2C2C" opacity="1.000000" stroke="none" 
	d="
M190.832733,105.976395 
	C190.812500,106.066154 190.604965,106.314880 190.237625,106.745087 
	C190.197693,106.612885 190.386887,106.349152 190.832733,105.976395 
z"/>
<path fill="#2C2C2C" opacity="1.000000" stroke="none" 
	d="
M190.074738,125.205200 
	C190.219223,125.246834 190.461594,125.601944 190.855606,126.243073 
	C190.729034,126.192299 190.450836,125.855492 190.074738,125.205200 
z"/>
<path fill="#2C2C2C" opacity="1.000000" stroke="none" 
	d="
M189.110565,123.123581 
	C189.180176,122.860458 189.364960,122.865341 189.825592,122.903503 
	C190.081207,123.160561 190.061005,123.384331 190.007492,123.944244 
	C189.724716,123.984123 189.475220,123.687859 189.110565,123.123581 
z"/>
<path fill="#47704C" opacity="1.000000" stroke="none" 
	d="
M114.969994,116.910873 
	C114.969994,116.910873 115.341751,116.986412 115.794174,117.246643 
	C117.167381,117.686333 118.088173,117.865807 119.008957,118.045273 
	C119.008957,118.045273 119.000809,117.985161 119.140625,118.250854 
	C119.853073,118.665344 120.425697,118.814140 120.998322,118.962936 
	C146.294449,127.409203 169.289597,139.460449 186.883835,161.179596 
	C189.598450,165.763840 191.839996,169.882980 194.089905,174.247589 
	C194.556885,175.015228 195.015503,175.537399 195.488312,176.445007 
	C195.690308,179.222549 195.878113,181.614639 196.119949,184.272827 
	C196.406311,185.021866 196.638626,185.504837 196.907288,186.456024 
	C196.648682,198.594666 196.353745,210.265091 196.039627,222.096039 
	C196.020447,222.256561 196.012390,222.579803 195.777588,222.916153 
	C194.673737,227.509018 193.804688,231.765549 192.935638,236.022064 
	C192.935638,236.022064 193.013336,236.018738 192.795593,236.102844 
	C192.391724,236.462021 192.205612,236.737091 192.019485,237.012146 
	C192.001694,237.442093 191.983902,237.872055 191.974945,238.649597 
	C191.983765,238.997208 192.009964,238.954651 191.777069,239.152802 
	C191.368073,239.935104 191.191986,240.519272 191.012436,241.201385 
	C191.008972,241.299362 191.032166,241.494034 190.784653,241.777252 
	C190.348114,242.522568 190.159103,242.984650 189.965607,243.617157 
	C189.963806,244.015488 189.986526,244.241409 189.781586,244.750427 
	C189.345963,245.499771 189.158035,245.964005 188.966034,246.601624 
	C188.964661,247.006912 188.987091,247.236877 188.783813,247.754913 
	C188.349030,248.512222 188.159622,248.979553 187.964996,249.623657 
	C187.961563,250.036789 187.981735,250.271561 187.809265,250.796783 
	C187.426300,252.015518 187.254379,252.942245 186.983231,254.192184 
	C183.152435,262.849548 179.682953,271.313385 175.636536,279.491791 
	C166.281052,298.400574 156.646088,317.171112 146.868912,336.255981 
	C146.339767,337.694305 146.066208,338.874390 145.724686,340.245178 
	C145.731491,340.955597 145.806259,341.475342 145.881027,341.995087 
	C144.591599,345.778412 143.302170,349.561737 141.998749,353.844788 
	C141.984756,354.344482 142.011276,354.550110 141.751251,354.861633 
	C140.678238,359.445496 139.865234,363.717773 139.034912,368.132812 
	C139.017593,368.275574 139.014206,368.563171 138.779724,368.893402 
	C138.063248,372.094849 137.581238,374.966064 136.999435,378.105408 
	C136.605789,379.825134 136.311966,381.276672 135.808716,382.974579 
	C135.407471,383.833679 135.215668,384.446442 135.013535,385.175049 
	C135.003204,385.290924 135.015289,385.523254 134.763550,385.837402 
	C134.013290,388.479095 133.514786,390.806702 133.008057,393.237335 
	C132.999832,393.340393 133.015442,393.546570 132.804642,393.847107 
	C132.410736,395.095123 132.227631,396.042664 132.031128,397.144653 
	C132.017715,397.299133 132.020370,397.609253 131.818054,397.882996 
	C131.415421,398.801453 131.215118,399.446136 131.007690,400.204620 
	C131.000565,400.318420 131.017929,400.545776 130.808807,400.822723 
	C130.406570,401.758911 130.213425,402.418182 130.011276,403.200317 
	C130.002258,403.323242 130.014328,403.569397 129.796082,403.864685 
	C129.351700,405.100128 129.125549,406.040253 128.899384,406.980408 
	C126.588066,411.353027 124.276733,415.725647 121.932953,420.495789 
	C121.900520,420.893311 121.960571,420.950500 121.696915,421.007141 
	C120.990845,421.357361 120.548424,421.650879 119.903976,422.217041 
	C113.452583,427.349030 107.203209,432.208374 100.559395,437.070160 
	C91.347107,440.050812 82.221458,440.225098 72.768463,439.909790 
	C69.310516,439.187012 66.141380,438.602844 62.972248,438.018646 
	C62.972248,438.018646 62.984573,438.009949 62.840134,437.838684 
	C62.487083,437.444031 62.259338,437.242249 62.012451,437.062042 
	C59.613544,435.755066 57.214634,434.448090 54.203003,432.912598 
	C44.093414,424.585419 36.729397,415.005524 32.951256,402.515472 
	C32.975208,393.673157 32.985157,385.260376 33.001167,376.751221 
	C33.007229,376.654846 32.989803,376.462494 33.217369,376.161316 
	C33.678394,374.891846 33.911854,373.923584 34.328415,372.672363 
	C36.367508,368.623871 38.223507,364.858307 40.079506,361.092712 
	C54.786106,344.847656 69.988525,329.015442 83.997566,312.189606 
	C91.396408,303.303101 96.632637,292.646606 99.194786,280.289368 
	C99.687157,278.413666 99.826759,277.173035 99.979584,275.817749 
	C99.992798,275.703125 99.986565,275.472382 100.242142,275.098022 
	C100.344315,267.404724 100.190903,260.085785 99.974724,252.442841 
	C99.312561,250.736038 98.713165,249.353256 98.088913,247.970459 
	C98.064064,247.970428 98.019859,247.993134 98.019859,247.993134 
	C96.286972,234.929276 89.927467,224.312241 80.379021,215.094818 
	C80.071075,214.970795 80.050377,214.953094 80.043686,214.940369 
	C78.136818,212.279175 76.490746,209.393066 74.282890,207.032394 
	C69.869835,202.313950 65.148911,197.883469 60.096554,192.866913 
	C52.243336,184.416733 44.585430,176.620453 40.784115,165.637177 
	C40.110939,162.372604 39.296482,159.490448 39.065567,156.562271 
	C38.054829,143.745422 43.698402,133.531158 51.988232,124.413879 
	C54.855957,122.118721 57.723682,119.823555 61.150467,117.196564 
	C71.544647,111.509354 82.267136,111.872322 93.248367,112.265335 
	C98.037941,113.315742 102.534737,114.116852 107.031525,114.917953 
	C107.509720,115.198997 107.987923,115.480042 109.053574,115.883049 
	C110.081398,115.984230 110.521759,115.963448 110.962120,115.942665 
	C110.962120,115.942665 111.324181,116.004944 111.776459,116.246994 
	C113.142487,116.629654 114.056244,116.770264 114.969994,116.910873 
z"/>
<path fill="#4B4B4B" opacity="1.000000" stroke="none" 
	d="
M190.029297,244.465302 
	C189.986526,244.241409 189.963806,244.015488 190.201630,243.324982 
	C190.638809,242.406281 190.835495,241.950165 191.032166,241.494034 
	C191.032166,241.494034 191.008972,241.299362 191.178070,240.949951 
	C191.568115,240.051910 191.789032,239.503281 192.009949,238.954651 
	C192.009964,238.954651 191.983765,238.997208 191.976807,238.972412 
	C191.871933,241.881058 192.656631,245.215881 191.534424,247.683517 
	C183.620438,265.086029 175.349762,282.327087 167.122086,299.585907 
	C160.903381,312.630585 154.588791,325.629639 148.285248,338.633667 
	C147.786423,339.662720 147.040085,340.571808 146.144897,341.765869 
	C145.806259,341.475342 145.731491,340.955597 145.896851,339.926697 
	C146.466171,338.277588 146.795334,337.137665 147.124496,335.997711 
	C156.646088,317.171112 166.281052,298.400574 175.636536,279.491791 
	C179.682953,271.313385 183.152435,262.849548 187.136978,253.877304 
	C187.600052,252.327713 187.810165,251.416229 188.020279,250.504745 
	C187.981735,250.271561 187.961563,250.036789 188.202026,249.326904 
	C188.639267,248.390549 188.834244,247.927734 189.029236,247.464920 
	C188.987091,247.236877 188.964661,247.006912 189.206406,246.310760 
	C189.643677,245.386093 189.836487,244.925690 190.029297,244.465302 
z"/>
<path fill="#484848" opacity="1.000000" stroke="none" 
	d="
M32.989803,376.462494 
	C32.989803,376.462494 33.007229,376.654846 32.779495,377.059387 
	C28.902374,386.014801 29.331614,394.503937 32.937248,402.945038 
	C36.729397,415.005524 44.093414,424.585419 53.848564,432.919434 
	C54.106850,433.154755 54.091377,433.544861 54.046066,433.775665 
	C54.000751,434.006470 53.928158,434.075287 53.928158,434.075287 
	C43.408241,428.719147 36.955986,419.773590 32.781345,409.161652 
	C27.500299,395.737152 27.230196,382.124054 33.383205,368.853363 
	C34.702358,366.008240 37.367947,363.787415 39.746391,361.185852 
	C38.223507,364.858307 36.367508,368.623871 34.148823,373.000214 
	C33.520691,374.561462 33.255245,375.511993 32.989803,376.462494 
z"/>
<path fill="#464646" opacity="1.000000" stroke="none" 
	d="
M51.824242,124.210892 
	C43.698402,133.531158 38.054829,143.745422 39.065567,156.562271 
	C39.296482,159.490448 40.110939,162.372604 40.454285,165.639343 
	C39.809532,166.002960 39.367325,166.003189 38.925117,166.003403 
	C38.034142,160.393951 35.379200,154.340378 36.654232,149.276276 
	C38.708111,141.118774 43.224781,133.549240 47.047394,125.904495 
	C47.607838,124.783676 50.075207,124.616386 51.824242,124.210892 
z"/>
<path fill="#4B4B4B" opacity="1.000000" stroke="none" 
	d="
M63.173897,438.302429 
	C66.141380,438.602844 69.310516,439.187012 73.130325,440.013367 
	C83.196037,442.239655 92.341690,441.927490 100.953827,437.067719 
	C107.203209,432.208374 113.452583,427.349030 120.215866,422.226715 
	C121.147110,421.969879 121.564461,421.975983 121.989418,421.988708 
	C121.997032,421.995270 122.014214,422.007904 122.014214,422.007904 
	C112.626663,435.854858 99.262047,442.468719 82.837448,442.869263 
	C76.136284,443.032654 69.157715,443.181732 63.173897,438.302429 
z"/>
<path fill="#464646" opacity="1.000000" stroke="none" 
	d="
M92.955589,112.016029 
	C82.267136,111.872322 71.544647,111.509354 61.399429,116.972839 
	C62.849339,115.423141 64.365723,112.769264 66.408981,112.269508 
	C79.474121,109.073959 92.614891,108.455322 105.501221,113.025177 
	C101.241074,112.800491 97.098335,112.408264 92.955589,112.016029 
z"/>
<path fill="#505050" opacity="1.000000" stroke="none" 
	d="
M38.997711,166.370087 
	C39.367325,166.003189 39.809532,166.002960 40.581573,166.000565 
	C44.585430,176.620453 52.243336,184.416733 59.829269,192.666840 
	C59.810238,193.217957 59.599911,193.501999 58.973873,193.883331 
	C58.400139,193.919449 58.242107,193.858292 58.084076,193.797119 
	C52.853844,187.359970 47.474636,181.035385 42.477978,174.421768 
	C40.833126,172.244629 40.177994,169.319748 38.997711,166.370087 
z"/>
<path fill="#363636" opacity="1.000000" stroke="none" 
	d="
M97.149277,254.038086 
	C92.711952,252.839508 90.505409,246.744736 92.976135,240.569702 
	C94.688126,243.196945 96.104698,245.370834 97.770561,247.768921 
	C98.019859,247.993134 98.064064,247.970428 97.993256,248.342728 
	C97.664719,250.489380 97.406998,252.263733 97.149277,254.038086 
z"/>
<path fill="#484848" opacity="1.000000" stroke="none" 
	d="
M97.262314,254.425934 
	C97.406998,252.263733 97.664719,250.489380 98.018105,248.342743 
	C98.713165,249.353256 99.312561,250.736038 99.780304,252.771698 
	C99.761284,260.773834 99.873924,268.123108 99.986557,275.472382 
	C99.986565,275.472382 99.992798,275.703125 99.792786,275.976593 
	C99.349472,276.466339 99.113350,276.690216 98.884407,276.921631 
	C98.583321,271.349182 98.307274,265.775208 97.966759,260.205170 
	C97.856567,258.402710 97.577286,256.610626 97.262314,254.425934 
z"/>
<path fill="#363636" opacity="1.000000" stroke="none" 
	d="
M57.981766,194.141418 
	C58.242107,193.858292 58.400139,193.919449 58.794060,194.077713 
	C61.843033,197.410950 64.656113,200.647079 67.892273,204.369919 
	C62.007229,204.418076 57.572140,199.532425 57.981766,194.141418 
z"/>
<path fill="#484848" opacity="1.000000" stroke="none" 
	d="
M196.012390,222.579803 
	C196.012390,222.579803 196.020447,222.256561 196.186844,221.751404 
	C196.973557,211.869751 197.593887,202.493256 198.214203,193.116776 
	C198.788727,194.629074 199.976593,196.200439 199.837570,197.644028 
	C198.977371,206.577087 197.818756,215.481445 196.487839,224.249649 
	C196.148422,223.595917 196.080399,223.087860 196.012390,222.579803 
z"/>
<path fill="#484848" opacity="1.000000" stroke="none" 
	d="
M139.014191,368.563171 
	C139.014206,368.563171 139.017593,368.275574 139.229401,367.856995 
	C139.944153,365.941772 140.447083,364.445099 140.949982,362.948425 
	C140.918625,365.699982 141.376190,368.566559 140.761017,371.180725 
	C139.142410,378.059021 137.057281,384.827515 134.975128,391.488525 
	C134.866638,389.399292 134.940964,387.461273 135.015289,385.523254 
	C135.015289,385.523254 135.003204,385.290924 135.174652,384.898987 
	C135.570129,383.914093 135.794144,383.321167 136.018158,382.728241 
	C136.311966,381.276672 136.605789,379.825134 137.174332,377.789917 
	C137.970749,374.325226 138.492477,371.444183 139.014191,368.563171 
z"/>
<path fill="#2C2C2C" opacity="1.000000" stroke="none" 
	d="
M198.168747,192.665573 
	C197.593887,202.493256 196.973557,211.869751 196.206024,221.590866 
	C196.353745,210.265091 196.648682,198.594666 197.185150,186.465179 
	C197.611588,186.011673 197.796524,186.017227 198.005829,186.219086 
	C198.030197,186.415390 198.077240,186.808212 198.077240,186.808212 
	C198.092590,188.610260 198.107925,190.412323 198.168747,192.665573 
z"/>
<path fill="#505050" opacity="1.000000" stroke="none" 
	d="
M204.825806,187.445526 
	C205.284607,193.994797 205.595947,200.922333 205.882065,208.291336 
	C205.464005,201.763123 205.071182,194.793457 204.825806,187.445526 
z"/>
<path fill="#4C4C4C" opacity="1.000000" stroke="none" 
	d="
M194.081558,174.002106 
	C191.839996,169.882980 189.598450,165.763840 187.170471,161.357712 
	C188.104874,161.565018 189.809799,161.759644 190.244125,162.606186 
	C192.008057,166.044159 193.381958,169.682220 194.950897,173.621552 
	C195.002090,173.996597 195.012115,173.986404 194.779449,173.988617 
	C194.546783,173.990845 194.081558,174.002106 194.081558,174.002106 
z"/>
<path fill="#484848" opacity="1.000000" stroke="none" 
	d="
M132.020370,397.609253 
	C132.020370,397.609253 132.017715,397.299133 132.187408,396.820160 
	C132.576553,395.409637 132.796005,394.478119 133.015442,393.546570 
	C133.015442,393.546570 132.999832,393.340393 133.306717,393.119507 
	C133.992981,392.703949 134.372360,392.509277 134.751755,392.314606 
	C133.282700,397.105194 131.813629,401.895813 130.164551,406.383789 
	C129.994461,405.243927 130.004395,404.406647 130.014328,403.569397 
	C130.014328,403.569397 130.002258,403.323242 130.191467,402.907196 
	C130.593094,401.842682 130.805511,401.194244 131.017929,400.545776 
	C131.017929,400.545776 131.000565,400.318420 131.180313,399.914337 
	C131.580154,398.876587 131.800262,398.242920 132.020370,397.609253 
z"/>
<path fill="#4C4C4C" opacity="1.000000" stroke="none" 
	d="
M198.182220,186.480759 
	C198.077240,186.808212 198.030197,186.415390 197.861954,185.976044 
	C197.151108,185.026718 196.608521,184.516724 196.065918,184.006744 
	C195.878113,181.614639 195.690308,179.222549 195.404358,176.101440 
	C195.208176,174.910416 195.110138,174.448410 195.012115,173.986404 
	C195.012115,173.986404 195.002090,173.996597 194.995438,174.000916 
	C196.088257,178.054581 197.187729,182.103943 198.182220,186.480759 
z"/>
<path fill="#2C2C2C" opacity="1.000000" stroke="none" 
	d="
M93.248367,112.265335 
	C97.098335,112.408264 101.241074,112.800491 105.856995,113.204315 
	C106.653061,113.183998 106.974510,113.141266 107.565567,113.296013 
	C107.863335,113.671776 107.890068,113.839241 107.916801,114.006706 
	C107.713585,114.203323 107.514709,114.404251 107.175858,114.763718 
	C102.534737,114.116852 98.037941,113.315742 93.248367,112.265335 
z"/>
<path fill="#2C2C2C" opacity="1.000000" stroke="none" 
	d="
M195.777588,222.916153 
	C196.080399,223.087860 196.148422,223.595917 196.247162,224.486176 
	C195.332550,228.418488 194.387222,231.968597 193.188766,235.770386 
	C193.804688,231.765549 194.673737,227.509018 195.777588,222.916153 
z"/>
<path fill="#2C2C2C" opacity="1.000000" stroke="none" 
	d="
M140.999023,362.702179 
	C140.447083,364.445099 139.944153,365.941772 139.246735,367.714264 
	C139.865234,363.717773 140.678238,359.445496 141.786102,355.328430 
	C141.890198,357.329346 141.699417,359.175049 141.508636,361.020752 
	C141.355103,361.499146 141.201569,361.977539 140.999023,362.702179 
z"/>
<path fill="#484848" opacity="1.000000" stroke="none" 
	d="
M141.743317,360.744385 
	C141.699417,359.175049 141.890198,357.329346 142.046127,355.016876 
	C142.011276,354.550110 141.984756,354.344482 141.985367,354.242493 
	C141.983337,356.249695 141.980682,358.358826 141.743317,360.744385 
z"/>
<path fill="#2C2C2C" opacity="1.000000" stroke="none" 
	d="
M134.763672,392.321716 
	C134.372360,392.509277 133.992981,392.703949 133.314941,393.016449 
	C133.514786,390.806702 134.013290,388.479095 134.763550,385.837402 
	C134.940964,387.461273 134.866638,389.399292 134.769882,391.824585 
	C134.747452,392.311859 134.775604,392.328827 134.763672,392.321716 
z"/>
<path fill="#2C2C2C" opacity="1.000000" stroke="none" 
	d="
M98.895920,277.331177 
	C99.113350,276.690216 99.349472,276.466339 99.779572,276.091217 
	C99.826759,277.173035 99.687157,278.413666 99.285416,279.923309 
	C98.984673,279.375092 98.946053,278.557922 98.895920,277.331177 
z"/>
<path fill="#2C2C2C" opacity="1.000000" stroke="none" 
	d="
M114.788315,116.746536 
	C114.056244,116.770264 113.142487,116.629654 111.959549,116.261871 
	C112.662453,116.217201 113.634544,116.399696 114.788315,116.746536 
z"/>
<path fill="#2C2C2C" opacity="1.000000" stroke="none" 
	d="
M118.821976,117.878906 
	C118.088173,117.865807 117.167381,117.686333 115.982391,117.270096 
	C116.690460,117.259727 117.662720,117.486137 118.821976,117.878906 
z"/>
<path fill="#2C2C2C" opacity="1.000000" stroke="none" 
	d="
M129.796082,403.864685 
	C130.004395,404.406647 129.994461,405.243927 129.946716,406.496521 
	C129.740707,406.923401 129.572495,406.934937 129.151840,406.963440 
	C129.125549,406.040253 129.351700,405.100128 129.796082,403.864685 
z"/>
<path fill="#4B4B4B" opacity="1.000000" stroke="none" 
	d="
M32.457703,163.526703 
	C32.449047,163.499969 32.466354,163.553452 32.457703,163.526703 
z"/>
<path fill="#2C2C2C" opacity="1.000000" stroke="none" 
	d="
M120.761078,118.804764 
	C120.425697,118.814140 119.853073,118.665344 119.113953,118.265289 
	C119.472916,118.224892 119.998383,118.435745 120.761078,118.804764 
z"/>
<path fill="#464646" opacity="1.000000" stroke="none" 
	d="
M107.991531,113.929504 
	C107.890068,113.839241 107.863335,113.671776 107.808151,113.250870 
	C107.875214,113.282394 107.970741,113.567345 107.991531,113.929504 
z"/>
<path fill="#2C2C2C" opacity="1.000000" stroke="none" 
	d="
M110.764854,115.897018 
	C110.521759,115.963448 110.081398,115.984230 109.310158,115.988419 
	C109.508713,115.931664 110.038155,115.891518 110.764854,115.897018 
z"/>
<path fill="#4B4B4B" opacity="1.000000" stroke="none" 
	d="
M121.901711,420.851868 
	C121.973434,421.105560 122.014137,421.404541 122.019608,421.857605 
	C122.014214,422.007904 121.997032,421.995270 121.984665,421.730896 
	C121.968391,421.294525 121.964485,421.122528 121.960571,420.950500 
	C121.960571,420.950500 121.900520,420.893311 121.901711,420.851868 
z"/>
<path fill="#484848" opacity="1.000000" stroke="none" 
	d="
M54.035587,433.970612 
	C54.070423,433.934753 53.985126,434.084778 53.956642,434.080017 
	C53.928158,434.075287 54.000751,434.006470 54.035587,433.970612 
z"/>
<path fill="#4B4B4B" opacity="1.000000" stroke="none" 
	d="
M62.168617,437.228058 
	C62.259338,437.242249 62.487083,437.444031 62.845833,437.840698 
	C62.760677,437.819855 62.536945,437.613220 62.168617,437.228058 
z"/>
<path fill="#4B4B4B" opacity="1.000000" stroke="none" 
	d="
M32.003937,360.004456 
	C32.008137,360.008942 32.029778,359.975922 32.010254,359.983521 
	C31.990734,359.991119 31.999733,360.000000 32.003937,360.004456 
z"/>
<path fill="#2C2C2C" opacity="1.000000" stroke="none" 
	d="
M192.200806,236.847778 
	C192.205612,236.737091 192.391724,236.462021 192.799316,236.064148 
	C192.824356,236.202835 192.611450,236.450195 192.200806,236.847778 
z"/>
<path fill="#444444" opacity="1.000000" stroke="none" 
	d="
M55.006638,112.007782 
	C55.013165,112.014549 54.956909,112.016350 54.972000,112.002396 
	C54.987087,111.988441 55.000107,112.001015 55.006638,112.007782 
z"/>
<path fill="#464646" opacity="1.000000" stroke="none" 
	d="
M57.503479,117.489456 
	C57.482864,117.494286 57.524090,117.484627 57.503479,117.489456 
z"/>
<path fill="#47704C" opacity="1.000000" stroke="none" 
	d="
M52.968948,81.040169 
	C51.256001,81.094116 49.543056,81.148056 47.134041,81.008484 
	C34.971336,74.114594 30.879713,63.455513 29.953392,50.862377 
	C29.198156,40.595169 31.583103,31.130487 36.072536,22.045761 
	C43.829578,15.652672 50.285736,16.185749 57.521072,23.142059 
	C64.042198,29.411707 67.173927,36.871735 66.966965,45.789593 
	C66.832527,51.582500 66.482613,57.370415 66.060486,63.917175 
	C63.975128,72.017151 58.037079,76.185219 52.968948,81.040169 
z"/>
<path fill="#484848" opacity="1.000000" stroke="none" 
	d="
M35.750671,22.167095 
	C31.583103,31.130487 29.198156,40.595169 29.953392,50.862377 
	C30.879713,63.455513 34.971336,74.114594 46.706505,81.037781 
	C43.695675,79.628227 39.628799,78.737892 37.271805,76.236420 
	C26.443039,64.743881 23.512316,41.907127 30.700985,27.837688 
	C31.776693,25.732347 33.828529,24.125748 35.750671,22.167095 
z"/>
<path fill="#484848" opacity="1.000000" stroke="none" 
	d="
M53.264656,81.088165 
	C58.037079,76.185219 63.975128,72.017151 66.008041,64.329636 
	C67.736511,70.368210 60.802383,79.833748 53.264656,81.088165 
z"/>
<path fill="#4C4C4C" opacity="1.000000" stroke="none" 
	d="
M68.994225,75.091537 
	C69.003242,75.133781 68.999001,75.302818 68.994133,75.725174 
	C68.972862,75.725296 68.968674,75.471909 68.994225,75.091537 
z"/>
<path fill="#47704C" opacity="1.000000" stroke="none" 
	d="
M96.331749,45.291718 
	C97.721138,44.059856 98.931885,42.446869 100.544418,41.691048 
	C102.635292,40.711014 105.046204,40.413754 107.917870,40.059185 
	C117.387115,47.243492 118.016205,56.836231 116.617104,66.811409 
	C115.618530,73.930954 109.872177,77.911652 102.691895,76.818443 
	C100.189804,72.312286 96.774963,68.220612 95.988235,63.674168 
	C94.947502,57.659962 95.963982,51.289772 96.096275,45.072582 
	C96.096275,45.072582 96.112404,45.148048 96.176811,45.199684 
	C96.241219,45.251320 96.331749,45.291721 96.331749,45.291718 
z"/>
<path fill="#444444" opacity="1.000000" stroke="none" 
	d="
M102.948799,77.030533 
	C109.872177,77.911652 115.618530,73.930954 116.617104,66.811409 
	C118.016205,56.836231 117.387115,47.243492 108.260155,40.070518 
	C109.818153,40.354694 112.249413,40.289688 113.345924,41.467400 
	C120.168877,48.795601 121.476143,66.216438 115.457077,74.211952 
	C113.486313,76.829842 109.649040,78.042595 106.045990,79.796127 
	C104.941353,79.460999 104.456070,79.227676 103.970779,78.994354 
	C103.970779,78.994354 104.000687,79.005577 103.873581,78.769089 
	C103.480591,78.031914 103.214699,77.531227 102.948799,77.030533 
z"/>
<path fill="#505050" opacity="1.000000" stroke="none" 
	d="
M102.691895,76.818443 
	C103.214699,77.531227 103.480591,78.031914 103.876404,78.784821 
	C102.418625,78.233597 100.528610,77.747269 99.295654,76.571777 
	C93.995804,71.518936 89.280502,54.927910 95.839691,45.319809 
	C95.963982,51.289772 94.947502,57.659962 95.988235,63.674168 
	C96.774963,68.220612 100.189804,72.312286 102.691895,76.818443 
z"/>
<path fill="#505050" opacity="1.000000" stroke="none" 
	d="
M96.366066,45.216766 
	C96.331749,45.291721 96.241219,45.251320 96.200272,45.230316 
	C96.159325,45.209316 96.287262,44.909634 96.287262,44.909634 
	C96.287262,44.909634 96.400383,45.141808 96.366066,45.216766 
z"/>
<path fill="#505050" opacity="1.000000" stroke="none" 
	d="
M104.200699,79.136559 
	C104.456070,79.227676 104.941353,79.460999 105.658966,79.824722 
	C105.404411,79.729668 104.917519,79.504211 104.200699,79.136559 
z"/>
<path fill="#47704C" opacity="1.000000" stroke="none" 
	d="
M173.887573,92.959145 
	C175.440475,88.736855 176.829468,84.440468 178.677795,80.351730 
	C179.070465,79.483101 181.239334,78.862053 182.396774,79.093315 
	C183.145706,79.242950 184.100418,81.200684 184.002716,82.259605 
	C183.573608,86.910591 182.794846,91.529320 181.852417,96.719162 
	C176.174149,100.267700 175.154083,99.693573 173.887573,92.959145 
z"/>
<path fill="#505050" opacity="1.000000" stroke="none" 
	d="
M173.672333,93.203270 
	C175.154083,99.693573 176.174149,100.267700 181.849457,97.092270 
	C182.008972,100.927414 179.208923,102.317932 176.136185,101.335068 
	C172.501343,100.172409 171.243042,97.139114 173.672333,93.203270 
z"/>
<path fill="#47704C" opacity="1.000000" stroke="none" 
	d="
M144.114578,78.055328 
	C144.296524,72.487175 143.915283,66.815872 144.908035,61.396236 
	C145.374832,58.847908 148.484711,56.783726 150.396866,54.500153 
	C152.249512,56.668049 154.150467,58.797558 155.923340,61.028847 
	C156.411530,61.643257 156.517380,62.561459 156.928131,64.063278 
	C157.371674,66.538765 157.685745,68.291245 157.999817,70.043724 
	C158.036575,70.465233 158.073318,70.886749 157.929672,71.943024 
	C157.341766,73.667259 157.141373,74.904953 156.487778,75.818367 
	C154.543839,78.535126 152.421722,81.124367 150.369232,83.763428 
	C148.284332,81.860725 146.199463,79.958023 144.114578,78.055328 
z"/>
<path fill="#4B4B4B" opacity="1.000000" stroke="none" 
	d="
M143.937637,77.991821 
	C146.199463,79.958023 148.284332,81.860725 150.369232,83.763428 
	C152.421722,81.124367 154.543839,78.535126 156.487778,75.818367 
	C157.141373,74.904953 157.341766,73.667259 157.940491,72.260223 
	C159.591583,77.521324 156.921783,81.776176 152.941483,84.866096 
	C151.485336,85.996490 147.774216,85.696747 146.035629,84.579994 
	C144.244766,83.429665 141.191742,81.236664 143.937637,77.991821 
z"/>
<path fill="#4B4B4B" opacity="1.000000" stroke="none" 
	d="
M158.114136,69.720032 
	C157.685745,68.291245 157.371674,66.538765 157.073517,64.396996 
	C157.469116,65.803917 157.848785,67.600121 158.114136,69.720032 
z"/>
<path fill="#505050" opacity="1.000000" stroke="none" 
	d="
M198.685883,118.873512 
	C197.841812,121.782410 196.619247,120.950493 195.588913,119.076096 
	C193.752716,115.735672 195.964874,107.753471 199.314362,105.635490 
	C200.053482,105.168121 201.825516,104.875076 201.908188,105.056107 
	C202.673767,106.732277 203.173172,108.530037 203.598175,110.426727 
	C202.183044,107.779587 200.062988,107.161041 199.015930,110.142242 
	C198.093887,112.767464 198.735046,115.941711 198.685883,118.873512 
z"/>
<path fill="#47704C" opacity="1.000000" stroke="none" 
	d="
M198.926102,118.623093 
	C198.735046,115.941711 198.093887,112.767464 199.015930,110.142242 
	C200.062988,107.161041 202.183044,107.779587 203.570541,110.824280 
	C203.688095,111.444565 203.681580,111.801552 203.523651,112.456787 
	C203.372253,112.755028 203.050568,112.827988 203.050568,112.827988 
	C201.755814,114.676216 200.461060,116.524445 198.926102,118.623093 
z"/>
<path fill="#505050" opacity="1.000000" stroke="none" 
	d="
M203.136749,112.848999 
	C203.050568,112.827988 203.372253,112.755028 203.533600,112.725311 
	C203.563766,112.826416 203.406433,112.884560 203.136749,112.848999 
z"/>
<path fill="#303030" opacity="1.000000" stroke="none" 
	d="
M32.951256,402.515472 
	C29.331614,394.503937 28.902374,386.014801 32.773434,377.155792 
	C32.985157,385.260376 32.975208,393.673157 32.951256,402.515472 
z"/>
<path fill="#303030" opacity="1.000000" stroke="none" 
	d="
M100.559387,437.070160 
	C92.341690,441.927490 83.196037,442.239655 73.419136,440.151978 
	C82.221458,440.225098 91.347107,440.050812 100.559387,437.070160 
z"/>
<path fill="#2C2C2C" opacity="1.000000" stroke="none" 
	d="
M100.242142,275.098022 
	C99.873924,268.123108 99.761284,260.773834 99.843063,253.095703 
	C100.190903,260.085785 100.344315,267.404724 100.242142,275.098022 
z"/>
<path fill="#2C2C2C" opacity="1.000000" stroke="none" 
	d="
M138.779724,368.893402 
	C138.492477,371.444183 137.970749,374.325226 137.274139,377.521759 
	C137.581238,374.966064 138.063248,372.094849 138.779724,368.893402 
z"/>
<path fill="#3B3C3C" opacity="1.000000" stroke="none" 
	d="
M146.868912,336.255981 
	C146.795334,337.137665 146.466171,338.277588 145.964844,339.736023 
	C146.066208,338.874390 146.339767,337.694305 146.868912,336.255981 
z"/>
<path fill="#3B3C3C" opacity="1.000000" stroke="none" 
	d="
M196.119965,184.272812 
	C196.608521,184.516724 197.151108,185.026718 197.837585,185.779755 
	C197.796524,186.017227 197.611588,186.011673 197.148804,185.996948 
	C196.638626,185.504837 196.406311,185.021866 196.119965,184.272812 
z"/>
<path fill="#3B3C3C" opacity="1.000000" stroke="none" 
	d="
M194.779449,173.988617 
	C195.110138,174.448410 195.208176,174.910416 195.390167,175.716003 
	C195.015503,175.537399 194.556885,175.015228 194.089905,174.247589 
	C194.081558,174.002106 194.546783,173.990845 194.779449,173.988617 
z"/>
<path fill="#303030" opacity="1.000000" stroke="none" 
	d="
M33.217369,376.161316 
	C33.255245,375.511993 33.520691,374.561462 33.965729,373.283142 
	C33.911854,373.923584 33.678394,374.891846 33.217369,376.161316 
z"/>
<path fill="#2C2C2C" opacity="1.000000" stroke="none" 
	d="
M132.804642,393.847107 
	C132.796005,394.478119 132.576553,395.409637 132.200836,396.665680 
	C132.227631,396.042664 132.410736,395.095123 132.804642,393.847107 
z"/>
<path fill="#2C2C2C" opacity="1.000000" stroke="none" 
	d="
M187.809265,250.796783 
	C187.810165,251.416229 187.600052,252.327713 187.236206,253.554077 
	C187.254379,252.942245 187.426300,252.015518 187.809265,250.796783 
z"/>
<path fill="#2C2C2C" opacity="1.000000" stroke="none" 
	d="
M135.808716,382.974579 
	C135.794144,383.321167 135.570129,383.914093 135.184998,384.783112 
	C135.215668,384.446442 135.407471,383.833679 135.808716,382.974579 
z"/>
<path fill="#2C2C2C" opacity="1.000000" stroke="none" 
	d="
M131.818054,397.882996 
	C131.800262,398.242920 131.580154,398.876587 131.187439,399.800537 
	C131.215118,399.446136 131.415421,398.801453 131.818054,397.882996 
z"/>
<path fill="#2C2C2C" opacity="1.000000" stroke="none" 
	d="
M130.808807,400.822723 
	C130.805511,401.194244 130.593094,401.842682 130.200485,402.784302 
	C130.213425,402.418182 130.406570,401.758911 130.808807,400.822723 
z"/>
<path fill="#2C2C2C" opacity="1.000000" stroke="none" 
	d="
M191.777054,239.152802 
	C191.789032,239.503281 191.568115,240.051910 191.181549,240.851990 
	C191.191986,240.519272 191.368073,239.935104 191.777054,239.152802 
z"/>
<path fill="#3B3C3C" opacity="1.000000" stroke="none" 
	d="
M121.696915,421.007141 
	C121.964485,421.122528 121.968391,421.294525 121.977051,421.724335 
	C121.564461,421.975983 121.147110,421.969879 120.417885,421.954102 
	C120.548424,421.650879 120.990845,421.357361 121.696915,421.007141 
z"/>
<path fill="#2C2C2C" opacity="1.000000" stroke="none" 
	d="
M188.783829,247.754913 
	C188.834244,247.927734 188.639267,248.390549 188.207245,249.150116 
	C188.159622,248.979553 188.349030,248.512222 188.783829,247.754913 
z"/>
<path fill="#2C2C2C" opacity="1.000000" stroke="none" 
	d="
M189.781586,244.750427 
	C189.836487,244.925690 189.643677,245.386093 189.210480,246.137360 
	C189.158035,245.964005 189.345963,245.499771 189.781586,244.750427 
z"/>
<path fill="#2C2C2C" opacity="1.000000" stroke="none" 
	d="
M190.784653,241.777252 
	C190.835495,241.950165 190.638809,242.406281 190.206116,243.154572 
	C190.159103,242.984650 190.348114,242.522568 190.784653,241.777252 
z"/>
</svg>