<?xml version="1.0" encoding="UTF-8"?>
<svg id="Calque_1" data-name="Calque 1" xmlns="http://www.w3.org/2000/svg" viewBox="0 0 228.76 294.89">
  <defs>
    <style>
      .cls-1 {
        fill: #fff;
      }
    </style>
  </defs>
  <path class="cls-1" d="M7.32,294.89c-2.48,0-6.81-2.24-7.18-3.87s.05-5.45.92-7.24c10.31-21.1,33.22-36.35,50.74-51.97,31.24-27.86,72.04-43.92,92.58-74.64,10.1-15.1,24.56-23.16,43.49-14.89,16.98,7.42,28.46,25.54,30.11,44.87,4.78,55.98-50.44,104.98-105.15,107.6l-105.52.14Z"/>
  <path class="cls-1" d="M194.45,61.51c-28.72,35.96-68.61,24.74-124.16,92.96-9.5,11.66-24.16,15.2-37.29,6.8C-6.3,136.13,13.75,55.74,75.94,20.75,91.5,12,136.27.29,154.83.23c19.43-.95,41.93,1.15,65.99,4.78,1.92,0,6.22,2.62,7.35,4.14s.57,6.03-.8,7.74l-32.92,44.62Z"/>
</svg>